<svg width="14" height="15" viewBox="0 0 14 15" fill="none" xmlns="http://www.w3.org/2000/svg">
<path d="M6.43576 6.35689H2.0618C1.89529 6.35533 1.73039 6.38966 1.57833 6.45755C1.42627 6.52544 1.29063 6.62528 1.18062 6.75029C1.07061 6.8753 0.988817 7.02255 0.940814 7.182C0.892812 7.34146 0.879723 7.50938 0.902438 7.67435C0.925976 7.98067 1.06621 8.26626 1.2942 8.47219C1.5222 8.67812 1.82054 8.78867 2.12767 8.78101H2.33847C2.20351 8.78443 2.07054 8.8144 1.94717 8.86923C1.82379 8.92405 1.71243 9.00265 1.61945 9.10053C1.52646 9.19841 1.45368 9.31365 1.40525 9.43967C1.35682 9.56569 1.33369 9.70002 1.3372 9.83498C1.34205 10.101 1.44373 10.3562 1.6232 10.5526C1.80267 10.749 2.0476 10.8733 2.31212 10.9021C2.18613 11.001 2.084 11.1269 2.0133 11.2706C1.94261 11.4142 1.90515 11.572 1.90371 11.7321C1.90437 11.9792 1.98973 12.2187 2.14557 12.4105C2.30141 12.6023 2.51829 12.7349 2.76005 12.7861C2.63291 13.0097 2.5908 13.2717 2.64148 13.5239C2.71139 13.7648 2.85926 13.9757 3.06193 14.1235C3.26459 14.2713 3.51058 14.3477 3.76132 14.3407H6.7783C7.17354 14.3407 7.56746 14.2906 7.95084 14.1958L9.82163 13.5766H12.3248C13.6423 13.5766 13.998 7.46355 12.3248 7.46355C12.0835 7.47685 11.8416 7.47685 11.6002 7.46355C11.5343 7.46355 11.4026 7.21324 11.0732 6.85752C10.5858 6.33054 10.0456 5.65863 9.66354 5.28975C8.72837 4.45942 7.96713 3.45189 7.42386 2.32546C7.31922 2.07687 7.17703 1.84582 7.00227 1.64039C6.78285 1.45586 6.49973 1.36489 6.21389 1.38707C5.92805 1.40925 5.66235 1.54279 5.47402 1.75896C5.33749 1.90662 5.22621 2.07576 5.14465 2.25959C5.09135 2.38681 5.05161 2.51928 5.02608 2.65483C4.99074 3.02627 5.02197 3.40103 5.1183 3.76149C5.20262 4.14092 5.32251 4.51113 5.47402 4.86816C5.7217 5.33322 6.01418 5.77457 6.34354 6.18562C6.38419 6.21067 6.41633 6.2474 6.43576 6.29101" stroke="#004B7C" stroke-width="0.843173" stroke-linecap="round" stroke-linejoin="round"/>
</svg>
