<svg width="206" height="36" viewBox="0 0 206 36" fill="none" xmlns="http://www.w3.org/2000/svg">
<g clip-path="url(#clip0_3_1229)">
<rect width="9" height="9" fill="#FF8577"/>
<rect width="9" height="9" fill="url(#paint0_linear_3_1229)"/>
<rect y="9" width="9" height="9" fill="#FF8577"/>
<rect y="9" width="9" height="9" fill="url(#paint1_linear_3_1229)"/>
<rect x="9" y="18" width="9" height="9" fill="#FF8577"/>
<rect x="9" y="18" width="9" height="9" fill="url(#paint2_linear_3_1229)"/>
<rect y="27" width="9" height="9" fill="#FF8577"/>
<rect y="27" width="9" height="9" fill="url(#paint3_linear_3_1229)"/>
<rect x="9" width="9" height="9" fill="#FF8577"/>
<rect x="9" width="9" height="9" fill="url(#paint4_linear_3_1229)"/>
<rect x="18" y="9" width="9" height="9" fill="#FF8577"/>
<rect x="18" y="9" width="9" height="9" fill="url(#paint5_linear_3_1229)"/>
<rect x="18" y="18" width="9" height="9" fill="#FF8577"/>
<rect x="18" y="18" width="9" height="9" fill="url(#paint6_linear_3_1229)"/>
</g>
<path d="M59.9176 15.6562H56.1847C56.1165 15.1733 55.9773 14.7443 55.767 14.3693C55.5568 13.9886 55.2869 13.6648 54.9574 13.3977C54.6278 13.1307 54.2472 12.9261 53.8153 12.7841C53.3892 12.642 52.9261 12.571 52.4261 12.571C51.5227 12.571 50.7358 12.7955 50.0653 13.2443C49.3949 13.6875 48.875 14.3352 48.5057 15.1875C48.1364 16.0341 47.9517 17.0625 47.9517 18.2727C47.9517 19.517 48.1364 20.5625 48.5057 21.4091C48.8807 22.2557 49.4034 22.8949 50.0739 23.3267C50.7443 23.7585 51.5199 23.9744 52.4006 23.9744C52.8949 23.9744 53.3523 23.9091 53.7727 23.7784C54.1989 23.6477 54.5767 23.4574 54.9062 23.2074C55.2358 22.9517 55.5085 22.642 55.7244 22.2784C55.946 21.9148 56.0994 21.5 56.1847 21.0341L59.9176 21.0511C59.821 21.8523 59.5795 22.625 59.1932 23.3693C58.8125 24.108 58.2983 24.7699 57.6506 25.3551C57.0085 25.9347 56.2415 26.3949 55.3494 26.7358C54.4631 27.071 53.4602 27.2386 52.3409 27.2386C50.7841 27.2386 49.392 26.8864 48.1648 26.1818C46.9432 25.4773 45.9773 24.4574 45.267 23.1222C44.5625 21.7869 44.2102 20.1705 44.2102 18.2727C44.2102 16.3693 44.5682 14.75 45.2841 13.4148C46 12.0795 46.9716 11.0625 48.1989 10.3636C49.4261 9.65909 50.8068 9.30682 52.3409 9.30682C53.3523 9.30682 54.2898 9.44886 55.1534 9.73295C56.0227 10.017 56.7926 10.4318 57.4631 10.9773C58.1335 11.517 58.679 12.179 59.0994 12.9631C59.5256 13.7472 59.7983 14.6449 59.9176 15.6562ZM61.4957 27V13.9091H65.0156V16.1932H65.152C65.3906 15.3807 65.7912 14.767 66.3537 14.3523C66.9162 13.9318 67.5639 13.7216 68.2969 13.7216C68.4787 13.7216 68.6747 13.733 68.8849 13.7557C69.0952 13.7784 69.2798 13.8097 69.4389 13.8494V17.071C69.2685 17.0199 69.0327 16.9744 68.7315 16.9347C68.4304 16.8949 68.1548 16.875 67.9048 16.875C67.3707 16.875 66.8935 16.9915 66.473 17.2244C66.0582 17.4517 65.7287 17.7699 65.4844 18.179C65.2457 18.5881 65.1264 19.0597 65.1264 19.5938V27H61.4957ZM75.6726 27.2557C74.326 27.2557 73.1669 26.983 72.1953 26.4375C71.2294 25.8864 70.4851 25.108 69.9624 24.1023C69.4396 23.0909 69.1783 21.8949 69.1783 20.5142C69.1783 19.1676 69.4396 17.9858 69.9624 16.9688C70.4851 15.9517 71.2209 15.1591 72.1697 14.5909C73.1243 14.0227 74.2436 13.7386 75.5277 13.7386C76.3913 13.7386 77.1953 13.8778 77.9396 14.1562C78.6896 14.429 79.343 14.8409 79.8999 15.392C80.4624 15.9432 80.8999 16.6364 81.2124 17.4716C81.5249 18.3011 81.6811 19.2727 81.6811 20.3864V21.3835H70.6271V19.1335H78.2635C78.2635 18.6108 78.1499 18.1477 77.9226 17.7443C77.6953 17.3409 77.38 17.0256 76.9766 16.7983C76.5788 16.5653 76.1158 16.4489 75.5874 16.4489C75.0362 16.4489 74.5476 16.5767 74.1214 16.8324C73.701 17.0824 73.3714 17.4205 73.1328 17.8466C72.8942 18.267 72.772 18.7358 72.7663 19.2528V21.392C72.7663 22.0398 72.8857 22.5994 73.1243 23.071C73.3686 23.5426 73.7124 23.9062 74.1555 24.1619C74.5987 24.4176 75.1243 24.5455 75.7322 24.5455C76.1357 24.5455 76.505 24.4886 76.8402 24.375C77.1754 24.2614 77.4624 24.0909 77.701 23.8636C77.9396 23.6364 78.1214 23.358 78.2464 23.0284L81.6044 23.25C81.4339 24.0568 81.0845 24.7614 80.5561 25.3636C80.0334 25.9602 79.3572 26.4261 78.5277 26.7614C77.7038 27.0909 76.7521 27.2557 75.6726 27.2557ZM86.7834 27.2472C85.9482 27.2472 85.2038 27.1023 84.5504 26.8125C83.897 26.517 83.38 26.0824 82.9993 25.5085C82.6243 24.929 82.4368 24.2074 82.4368 23.3438C82.4368 22.6165 82.5703 22.0057 82.8374 21.5114C83.1044 21.017 83.468 20.6193 83.9283 20.3182C84.3885 20.017 84.9112 19.7898 85.4964 19.6364C86.0874 19.483 86.7067 19.375 87.3544 19.3125C88.1158 19.233 88.7294 19.1591 89.1953 19.0909C89.6612 19.017 89.9993 18.9091 90.2095 18.767C90.4197 18.625 90.5249 18.4148 90.5249 18.1364V18.0852C90.5249 17.5455 90.3544 17.1278 90.0135 16.8324C89.6783 16.5369 89.201 16.3892 88.5817 16.3892C87.9283 16.3892 87.4084 16.5341 87.022 16.8239C86.6357 17.108 86.38 17.4659 86.255 17.8977L82.897 17.625C83.0675 16.8295 83.4027 16.142 83.9027 15.5625C84.4027 14.9773 85.0476 14.5284 85.8374 14.2159C86.6328 13.8977 87.5533 13.7386 88.5987 13.7386C89.326 13.7386 90.022 13.8239 90.6868 13.9943C91.3572 14.1648 91.951 14.429 92.468 14.7869C92.9908 15.1449 93.4027 15.6051 93.7038 16.1676C94.005 16.7244 94.1555 17.392 94.1555 18.1705V27H90.7124V25.1847H90.6101C90.3999 25.5938 90.1186 25.9545 89.7663 26.267C89.4141 26.5739 88.9908 26.8153 88.4964 26.9915C88.0021 27.1619 87.4311 27.2472 86.7834 27.2472ZM87.8232 24.7415C88.3572 24.7415 88.8288 24.6364 89.2379 24.4261C89.647 24.2102 89.968 23.9205 90.201 23.5568C90.4339 23.1932 90.5504 22.7812 90.5504 22.321V20.9318C90.4368 21.0057 90.2805 21.0739 90.0817 21.1364C89.8885 21.1932 89.6697 21.2472 89.4254 21.2983C89.1811 21.3437 88.9368 21.3864 88.6925 21.4261C88.4482 21.4602 88.2266 21.4915 88.0277 21.5199C87.6016 21.5824 87.2294 21.6818 86.9112 21.8182C86.593 21.9545 86.3459 22.1392 86.1697 22.3722C85.9936 22.5994 85.9055 22.8835 85.9055 23.2244C85.9055 23.7188 86.0845 24.0966 86.4425 24.358C86.8061 24.6136 87.2663 24.7415 87.8232 24.7415ZM102.935 13.9091V16.6364H95.0518V13.9091H102.935ZM96.8416 10.7727H100.472V22.9773C100.472 23.3125 100.523 23.5739 100.626 23.7614C100.728 23.9432 100.87 24.071 101.052 24.1449C101.239 24.2187 101.455 24.2557 101.7 24.2557C101.87 24.2557 102.04 24.2415 102.211 24.2131C102.381 24.179 102.512 24.1534 102.603 24.1364L103.174 26.8381C102.992 26.8949 102.737 26.9602 102.407 27.0341C102.077 27.1136 101.677 27.1619 101.205 27.179C100.33 27.2131 99.5632 27.0966 98.9041 26.8295C98.2507 26.5625 97.7422 26.1477 97.3786 25.5852C97.0149 25.0227 96.8359 24.3125 96.8416 23.4545V10.7727ZM110.075 27.2557C108.751 27.2557 107.606 26.9744 106.64 26.4119C105.68 25.8437 104.938 25.054 104.415 24.0426C103.893 23.0256 103.631 21.8466 103.631 20.5057C103.631 19.1534 103.893 17.9716 104.415 16.9602C104.938 15.9432 105.68 15.1534 106.64 14.5909C107.606 14.0227 108.751 13.7386 110.075 13.7386C111.398 13.7386 112.54 14.0227 113.501 14.5909C114.467 15.1534 115.211 15.9432 115.734 16.9602C116.256 17.9716 116.518 19.1534 116.518 20.5057C116.518 21.8466 116.256 23.0256 115.734 24.0426C115.211 25.054 114.467 25.8437 113.501 26.4119C112.54 26.9744 111.398 27.2557 110.075 27.2557ZM110.092 24.4432C110.694 24.4432 111.197 24.2727 111.6 23.9318C112.004 23.5852 112.308 23.1136 112.512 22.517C112.722 21.9205 112.827 21.2415 112.827 20.4801C112.827 19.7188 112.722 19.0398 112.512 18.4432C112.308 17.8466 112.004 17.375 111.6 17.0284C111.197 16.6818 110.694 16.5085 110.092 16.5085C109.484 16.5085 108.972 16.6818 108.558 17.0284C108.148 17.375 107.839 17.8466 107.629 18.4432C107.424 19.0398 107.322 19.7188 107.322 20.4801C107.322 21.2415 107.424 21.9205 107.629 22.517C107.839 23.1136 108.148 23.5852 108.558 23.9318C108.972 24.2727 109.484 24.4432 110.092 24.4432ZM117.879 27V13.9091H121.398V16.1932H121.535C121.773 15.3807 122.174 14.767 122.737 14.3523C123.299 13.9318 123.947 13.7216 124.68 13.7216C124.862 13.7216 125.058 13.733 125.268 13.7557C125.478 13.7784 125.663 13.8097 125.822 13.8494V17.071C125.651 17.0199 125.415 16.9744 125.114 16.9347C124.813 16.8949 124.538 16.875 124.288 16.875C123.754 16.875 123.276 16.9915 122.856 17.2244C122.441 17.4517 122.112 17.7699 121.867 18.179C121.629 18.5881 121.509 19.0597 121.509 19.5938V27H117.879ZM134.318 13.9091V16.6364H126.435V13.9091H134.318ZM128.224 10.7727H131.855V22.9773C131.855 23.3125 131.906 23.5739 132.009 23.7614C132.111 23.9432 132.253 24.071 132.435 24.1449C132.622 24.2187 132.838 24.2557 133.082 24.2557C133.253 24.2557 133.423 24.2415 133.594 24.2131C133.764 24.179 133.895 24.1534 133.986 24.1364L134.557 26.8381C134.375 26.8949 134.119 26.9602 133.79 27.0341C133.46 27.1136 133.06 27.1619 132.588 27.179C131.713 27.2131 130.946 27.0966 130.287 26.8295C129.634 26.5625 129.125 26.1477 128.761 25.5852C128.398 25.0227 128.219 24.3125 128.224 23.4545V10.7727ZM141.457 27.2557C140.134 27.2557 138.989 26.9744 138.023 26.4119C137.063 25.8437 136.321 25.054 135.798 24.0426C135.276 23.0256 135.014 21.8466 135.014 20.5057C135.014 19.1534 135.276 17.9716 135.798 16.9602C136.321 15.9432 137.063 15.1534 138.023 14.5909C138.989 14.0227 140.134 13.7386 141.457 13.7386C142.781 13.7386 143.923 14.0227 144.884 14.5909C145.849 15.1534 146.594 15.9432 147.116 16.9602C147.639 17.9716 147.901 19.1534 147.901 20.5057C147.901 21.8466 147.639 23.0256 147.116 24.0426C146.594 25.054 145.849 25.8437 144.884 26.4119C143.923 26.9744 142.781 27.2557 141.457 27.2557ZM141.474 24.4432C142.077 24.4432 142.58 24.2727 142.983 23.9318C143.386 23.5852 143.69 23.1136 143.895 22.517C144.105 21.9205 144.21 21.2415 144.21 20.4801C144.21 19.7188 144.105 19.0398 143.895 18.4432C143.69 17.8466 143.386 17.375 142.983 17.0284C142.58 16.6818 142.077 16.5085 141.474 16.5085C140.866 16.5085 140.355 16.6818 139.94 17.0284C139.531 17.375 139.222 17.8466 139.011 18.4432C138.807 19.0398 138.705 19.7188 138.705 20.4801C138.705 21.2415 138.807 21.9205 139.011 22.517C139.222 23.1136 139.531 23.5852 139.94 23.9318C140.355 24.2727 140.866 24.4432 141.474 24.4432ZM155.176 27.2557C153.852 27.2557 152.707 26.9744 151.741 26.4119C150.781 25.8437 150.04 25.054 149.517 24.0426C148.994 23.0256 148.733 21.8466 148.733 20.5057C148.733 19.1534 148.994 17.9716 149.517 16.9602C150.04 15.9432 150.781 15.1534 151.741 14.5909C152.707 14.0227 153.852 13.7386 155.176 13.7386C156.5 13.7386 157.642 14.0227 158.602 14.5909C159.568 15.1534 160.312 15.9432 160.835 16.9602C161.358 17.9716 161.619 19.1534 161.619 20.5057C161.619 21.8466 161.358 23.0256 160.835 24.0426C160.312 25.054 159.568 25.8437 158.602 26.4119C157.642 26.9744 156.5 27.2557 155.176 27.2557ZM155.193 24.4432C155.795 24.4432 156.298 24.2727 156.702 23.9318C157.105 23.5852 157.409 23.1136 157.614 22.517C157.824 21.9205 157.929 21.2415 157.929 20.4801C157.929 19.7188 157.824 19.0398 157.614 18.4432C157.409 17.8466 157.105 17.375 156.702 17.0284C156.298 16.6818 155.795 16.5085 155.193 16.5085C154.585 16.5085 154.074 16.6818 153.659 17.0284C153.25 17.375 152.94 17.8466 152.73 18.4432C152.526 19.0398 152.423 19.7188 152.423 20.4801C152.423 21.2415 152.526 21.9205 152.73 22.517C152.94 23.1136 153.25 23.5852 153.659 23.9318C154.074 24.2727 154.585 24.4432 155.193 24.4432ZM166.611 9.54545V27H162.98V9.54545H166.611ZM179.411 17.642L176.087 17.8466C176.031 17.5625 175.908 17.3068 175.721 17.0795C175.533 16.8466 175.286 16.6619 174.979 16.5256C174.678 16.3835 174.317 16.3125 173.897 16.3125C173.335 16.3125 172.86 16.4318 172.474 16.6705C172.087 16.9034 171.894 17.2159 171.894 17.608C171.894 17.9205 172.019 18.1847 172.269 18.4006C172.519 18.6165 172.948 18.7898 173.556 18.9205L175.925 19.3977C177.198 19.6591 178.147 20.0795 178.772 20.6591C179.397 21.2386 179.71 22 179.71 22.9432C179.71 23.8011 179.457 24.554 178.951 25.2017C178.451 25.8494 177.763 26.3551 176.888 26.7188C176.019 27.0767 175.016 27.2557 173.88 27.2557C172.147 27.2557 170.766 26.8949 169.738 26.1733C168.715 25.446 168.116 24.4574 167.94 23.2074L171.511 23.0199C171.619 23.5483 171.88 23.9517 172.295 24.2301C172.71 24.5028 173.241 24.6392 173.888 24.6392C174.525 24.6392 175.036 24.517 175.423 24.2727C175.815 24.0227 176.013 23.7017 176.019 23.3097C176.013 22.9801 175.874 22.7102 175.602 22.5C175.329 22.2841 174.908 22.1193 174.34 22.0057L172.073 21.554C170.795 21.2983 169.843 20.8551 169.218 20.2244C168.599 19.5937 168.289 18.7898 168.289 17.8125C168.289 16.9716 168.516 16.2472 168.971 15.6392C169.431 15.0312 170.076 14.5625 170.906 14.233C171.741 13.9034 172.718 13.7386 173.837 13.7386C175.491 13.7386 176.792 14.0881 177.741 14.7869C178.695 15.4858 179.252 16.4375 179.411 17.642ZM183.118 27.2216C182.555 27.2216 182.072 27.0227 181.669 26.625C181.271 26.2216 181.072 25.7386 181.072 25.1761C181.072 24.6193 181.271 24.142 181.669 23.7443C182.072 23.3466 182.555 23.1477 183.118 23.1477C183.663 23.1477 184.141 23.3466 184.55 23.7443C184.959 24.142 185.163 24.6193 185.163 25.1761C185.163 25.5511 185.067 25.8949 184.874 26.2074C184.686 26.5142 184.439 26.7614 184.132 26.9489C183.825 27.1307 183.487 27.2216 183.118 27.2216ZM190.877 27.2472C190.042 27.2472 189.298 27.1023 188.644 26.8125C187.991 26.517 187.474 26.0824 187.093 25.5085C186.718 24.929 186.531 24.2074 186.531 23.3438C186.531 22.6165 186.664 22.0057 186.931 21.5114C187.198 21.017 187.562 20.6193 188.022 20.3182C188.482 20.017 189.005 19.7898 189.59 19.6364C190.181 19.483 190.8 19.375 191.448 19.3125C192.21 19.233 192.823 19.1591 193.289 19.0909C193.755 19.017 194.093 18.9091 194.303 18.767C194.513 18.625 194.619 18.4148 194.619 18.1364V18.0852C194.619 17.5455 194.448 17.1278 194.107 16.8324C193.772 16.5369 193.295 16.3892 192.675 16.3892C192.022 16.3892 191.502 16.5341 191.116 16.8239C190.729 17.108 190.474 17.4659 190.349 17.8977L186.991 17.625C187.161 16.8295 187.496 16.142 187.996 15.5625C188.496 14.9773 189.141 14.5284 189.931 14.2159C190.727 13.8977 191.647 13.7386 192.692 13.7386C193.42 13.7386 194.116 13.8239 194.781 13.9943C195.451 14.1648 196.045 14.429 196.562 14.7869C197.085 15.1449 197.496 15.6051 197.798 16.1676C198.099 16.7244 198.249 17.392 198.249 18.1705V27H194.806V25.1847H194.704C194.494 25.5938 194.212 25.9545 193.86 26.267C193.508 26.5739 193.085 26.8153 192.59 26.9915C192.096 27.1619 191.525 27.2472 190.877 27.2472ZM191.917 24.7415C192.451 24.7415 192.923 24.6364 193.332 24.4261C193.741 24.2102 194.062 23.9205 194.295 23.5568C194.528 23.1932 194.644 22.7812 194.644 22.321V20.9318C194.531 21.0057 194.374 21.0739 194.175 21.1364C193.982 21.1932 193.763 21.2472 193.519 21.2983C193.275 21.3437 193.031 21.3864 192.786 21.4261C192.542 21.4602 192.32 21.4915 192.121 21.5199C191.695 21.5824 191.323 21.6818 191.005 21.8182C190.687 21.9545 190.44 22.1392 190.263 22.3722C190.087 22.5994 189.999 22.8835 189.999 23.2244C189.999 23.7188 190.178 24.0966 190.536 24.358C190.9 24.6136 191.36 24.7415 191.917 24.7415ZM200.066 27V13.9091H203.697V27H200.066ZM201.89 12.2216C201.35 12.2216 200.887 12.0426 200.501 11.6847C200.12 11.321 199.93 10.8864 199.93 10.3807C199.93 9.88068 200.12 9.4517 200.501 9.09375C200.887 8.73011 201.35 8.54829 201.89 8.54829C202.43 8.54829 202.89 8.73011 203.271 9.09375C203.657 9.4517 203.85 9.88068 203.85 10.3807C203.85 10.8864 203.657 11.321 203.271 11.6847C202.89 12.0426 202.43 12.2216 201.89 12.2216Z" fill="#363430"/>
<defs>
<linearGradient id="paint0_linear_3_1229" x1="4.5" y1="0" x2="4.5" y2="9" gradientUnits="userSpaceOnUse">
<stop stop-color="#FF81AC"/>
<stop offset="1" stop-color="#FF3F80"/>
</linearGradient>
<linearGradient id="paint1_linear_3_1229" x1="4.5" y1="9" x2="4.5" y2="18" gradientUnits="userSpaceOnUse">
<stop stop-color="#FF81AC"/>
<stop offset="1" stop-color="#FF3F80"/>
</linearGradient>
<linearGradient id="paint2_linear_3_1229" x1="13.5" y1="18" x2="13.5" y2="27" gradientUnits="userSpaceOnUse">
<stop stop-color="#FF81AC"/>
<stop offset="1" stop-color="#FF3F80"/>
</linearGradient>
<linearGradient id="paint3_linear_3_1229" x1="4.5" y1="27" x2="4.5" y2="36" gradientUnits="userSpaceOnUse">
<stop stop-color="#FF81AC"/>
<stop offset="1" stop-color="#FF3F80"/>
</linearGradient>
<linearGradient id="paint4_linear_3_1229" x1="13.5" y1="0" x2="13.5" y2="9" gradientUnits="userSpaceOnUse">
<stop stop-color="#FF81AC"/>
<stop offset="1" stop-color="#FF3F80"/>
</linearGradient>
<linearGradient id="paint5_linear_3_1229" x1="22.5" y1="9" x2="22.5" y2="18" gradientUnits="userSpaceOnUse">
<stop stop-color="#FF81AC"/>
<stop offset="1" stop-color="#FF3F80"/>
</linearGradient>
<linearGradient id="paint6_linear_3_1229" x1="22.5" y1="18" x2="22.5" y2="27" gradientUnits="userSpaceOnUse">
<stop stop-color="#FF81AC"/>
<stop offset="1" stop-color="#FF3F80"/>
</linearGradient>
<clipPath id="clip0_3_1229">
<rect width="27" height="36" fill="white"/>
</clipPath>
</defs>
</svg>
