<svg width="730" height="130" viewBox="0 0 730 130" fill="none" xmlns="http://www.w3.org/2000/svg">
<path d="M0.458993 8.45739V2.27273H32.9533V8.45739H20.3652V43H13.0471V8.45739H0.458993ZM46.1835 43.5966C43.2006 43.5966 40.6153 42.9403 38.4278 41.6278C36.2403 40.3153 34.5434 38.4792 33.3369 36.1193C32.1437 33.7595 31.5471 31.0019 31.5471 27.8466C31.5471 24.6913 32.1437 21.9271 33.3369 19.554C34.5434 17.1809 36.2403 15.3381 38.4278 14.0256C40.6153 12.7131 43.2006 12.0568 46.1835 12.0568C49.1665 12.0568 51.7517 12.7131 53.9392 14.0256C56.1267 15.3381 57.817 17.1809 59.0102 19.554C60.2167 21.9271 60.8199 24.6913 60.8199 27.8466C60.8199 31.0019 60.2167 33.7595 59.0102 36.1193C57.817 38.4792 56.1267 40.3153 53.9392 41.6278C51.7517 42.9403 49.1665 43.5966 46.1835 43.5966ZM46.2233 37.8295C47.8407 37.8295 49.193 37.3854 50.2801 36.4972C51.3672 35.5956 52.1759 34.3892 52.7062 32.8778C53.2498 31.3665 53.5216 29.6828 53.5216 27.8267C53.5216 25.9574 53.2498 24.267 52.7062 22.7557C52.1759 21.2311 51.3672 20.018 50.2801 19.1165C49.193 18.215 47.8407 17.7642 46.2233 17.7642C44.5661 17.7642 43.1873 18.215 42.0869 19.1165C40.9998 20.018 40.1845 21.2311 39.6409 22.7557C39.1106 24.267 38.8454 25.9574 38.8454 27.8267C38.8454 29.6828 39.1106 31.3665 39.6409 32.8778C40.1845 34.3892 40.9998 35.5956 42.0869 36.4972C43.1873 37.3854 44.5661 37.8295 46.2233 37.8295ZM65.32 54.4545V12.4545H72.3995V17.5057H72.8171C73.1883 16.7633 73.712 15.9744 74.3881 15.1392C75.0643 14.2907 75.979 13.5682 77.1325 12.9716C78.2859 12.3617 79.7575 12.0568 81.5472 12.0568C83.9071 12.0568 86.0349 12.66 87.9308 13.8665C89.8398 15.0597 91.3512 16.8295 92.4648 19.1761C93.5917 21.5095 94.1552 24.3731 94.1552 27.767C94.1552 31.1212 93.605 33.9716 92.5046 36.3182C91.4042 38.6648 89.9061 40.4545 88.0103 41.6875C86.1145 42.9205 83.9667 43.5369 81.5671 43.5369C79.8171 43.5369 78.3654 43.2453 77.212 42.6619C76.0586 42.0786 75.1306 41.3759 74.4279 40.554C73.7385 39.7187 73.2016 38.9299 72.8171 38.1875H72.5188V54.4545H65.32ZM72.3796 27.7273C72.3796 29.7027 72.658 31.4328 73.2148 32.9176C73.7849 34.4025 74.6003 35.5625 75.6609 36.3977C76.7347 37.2197 78.034 37.6307 79.5586 37.6307C81.1495 37.6307 82.4819 37.2064 83.5558 36.358C84.6296 35.4962 85.4383 34.3229 85.9819 32.8381C86.5387 31.34 86.8171 29.6364 86.8171 27.7273C86.8171 25.8314 86.5453 24.1477 86.0018 22.6761C85.4582 21.2045 84.6495 20.0511 83.5756 19.2159C82.5018 18.3807 81.1628 17.9631 79.5586 17.9631C78.0207 17.9631 76.7148 18.3674 75.641 19.1761C74.5671 19.9848 73.7518 21.1184 73.195 22.5767C72.6514 24.035 72.3796 25.7519 72.3796 27.7273ZM146.17 16.0142H138.732C138.52 14.7945 138.129 13.714 137.559 12.7727C136.989 11.8182 136.279 11.0095 135.431 10.3466C134.582 9.68371 133.615 9.18655 132.528 8.85511C131.454 8.51042 130.294 8.33807 129.047 8.33807C126.833 8.33807 124.871 8.89489 123.161 10.0085C121.451 11.1089 120.112 12.7263 119.144 14.8608C118.176 16.982 117.692 19.5739 117.692 22.6364C117.692 25.7519 118.176 28.3769 119.144 30.5114C120.125 32.6326 121.464 34.2367 123.161 35.3239C124.871 36.3977 126.827 36.9347 129.028 36.9347C130.247 36.9347 131.387 36.7756 132.448 36.4574C133.522 36.1259 134.483 35.642 135.331 35.0057C136.193 34.3693 136.916 33.5871 137.499 32.6591C138.096 31.7311 138.507 30.6705 138.732 29.4773L146.17 29.517C145.891 31.4527 145.288 33.2689 144.36 34.9659C143.445 36.6629 142.245 38.161 140.76 39.4602C139.276 40.7462 137.539 41.7538 135.55 42.483C133.562 43.1989 131.354 43.5568 128.928 43.5568C125.349 43.5568 122.153 42.7282 119.343 41.071C116.532 39.4138 114.318 37.0208 112.701 33.892C111.083 30.7633 110.275 27.0114 110.275 22.6364C110.275 18.2481 111.09 14.4962 112.721 11.3807C114.351 8.25189 116.572 5.8589 119.383 4.2017C122.193 2.54451 125.375 1.71591 128.928 1.71591C131.195 1.71591 133.303 2.03409 135.252 2.67045C137.201 3.30682 138.938 4.24148 140.462 5.47443C141.987 6.69413 143.24 8.19223 144.221 9.96875C145.215 11.732 145.865 13.7472 146.17 16.0142ZM150.998 43V12.4545H157.978V17.5455H158.296C158.853 15.7822 159.807 14.4233 161.16 13.4688C162.525 12.5009 164.083 12.017 165.833 12.017C166.231 12.017 166.675 12.0369 167.165 12.0767C167.669 12.1032 168.087 12.1496 168.418 12.2159V18.8381C168.113 18.732 167.629 18.6392 166.967 18.5597C166.317 18.4669 165.687 18.4205 165.077 18.4205C163.765 18.4205 162.585 18.7055 161.538 19.2756C160.503 19.8324 159.688 20.608 159.092 21.6023C158.495 22.5966 158.197 23.7434 158.197 25.0426V43H150.998ZM183.856 43.5966C180.793 43.5966 178.148 42.9602 175.921 41.6875C173.707 40.4015 172.004 38.5852 170.81 36.2386C169.617 33.8788 169.021 31.1013 169.021 27.9062C169.021 24.7642 169.617 22.0066 170.81 19.6335C172.017 17.2472 173.701 15.3911 175.861 14.0653C178.022 12.7263 180.561 12.0568 183.478 12.0568C185.361 12.0568 187.137 12.3617 188.808 12.9716C190.491 13.5682 191.976 14.4962 193.262 15.7557C194.561 17.0152 195.582 18.6193 196.325 20.5682C197.067 22.5038 197.438 24.8106 197.438 27.4886V29.696H172.401V24.8438H190.538C190.524 23.465 190.226 22.2386 189.643 21.1648C189.059 20.0777 188.244 19.2225 187.197 18.5994C186.163 17.9763 184.956 17.6648 183.577 17.6648C182.106 17.6648 180.813 18.0227 179.7 18.7386C178.586 19.4413 177.718 20.3693 177.094 21.5227C176.485 22.6629 176.173 23.9157 176.16 25.2812V29.517C176.16 31.2936 176.485 32.8182 177.134 34.0909C177.784 35.3504 178.692 36.3182 179.859 36.9943C181.025 37.6572 182.391 37.9886 183.955 37.9886C185.003 37.9886 185.951 37.8428 186.799 37.5511C187.647 37.2462 188.383 36.8021 189.006 36.2188C189.629 35.6354 190.1 34.9129 190.418 34.0511L197.14 34.8068C196.716 36.5833 195.907 38.1345 194.714 39.4602C193.534 40.7727 192.022 41.7936 190.18 42.5227C188.337 43.2386 186.229 43.5966 183.856 43.5966ZM210.708 43.6165C208.773 43.6165 207.029 43.2718 205.478 42.5824C203.94 41.8797 202.72 40.8456 201.819 39.4801C200.931 38.1146 200.487 36.4309 200.487 34.429C200.487 32.7055 200.805 31.2803 201.441 30.1534C202.077 29.0265 202.946 28.125 204.046 27.4489C205.147 26.7727 206.386 26.2623 207.765 25.9176C209.157 25.5597 210.595 25.3011 212.08 25.142C213.87 24.9564 215.322 24.7907 216.435 24.6449C217.549 24.4858 218.358 24.2472 218.862 23.929C219.379 23.5975 219.637 23.0871 219.637 22.3977V22.2784C219.637 20.7803 219.193 19.6203 218.305 18.7983C217.416 17.9763 216.137 17.5653 214.467 17.5653C212.703 17.5653 211.305 17.9498 210.271 18.7188C209.25 19.4877 208.56 20.3958 208.202 21.4432L201.481 20.4886C202.011 18.6326 202.886 17.0814 204.106 15.8352C205.326 14.5758 206.817 13.6345 208.58 13.0114C210.344 12.375 212.292 12.0568 214.427 12.0568C215.899 12.0568 217.363 12.2292 218.822 12.5739C220.28 12.9186 221.613 13.4886 222.819 14.2841C224.025 15.0663 224.993 16.1335 225.722 17.4858C226.465 18.8381 226.836 20.5284 226.836 22.5568V43H219.916V38.804H219.677C219.239 39.6525 218.623 40.4479 217.827 41.1903C217.045 41.9195 216.058 42.5095 214.864 42.9602C213.684 43.3977 212.299 43.6165 210.708 43.6165ZM212.577 38.3267C214.023 38.3267 215.275 38.0417 216.336 37.4716C217.397 36.8883 218.212 36.1193 218.782 35.1648C219.365 34.2102 219.657 33.1695 219.657 32.0426V28.4432C219.432 28.6288 219.047 28.8011 218.504 28.9602C217.973 29.1193 217.377 29.2585 216.714 29.3778C216.051 29.4972 215.395 29.6032 214.745 29.696C214.095 29.7888 213.532 29.8684 213.055 29.9347C211.981 30.0805 211.02 30.3191 210.171 30.6506C209.323 30.982 208.653 31.446 208.163 32.0426C207.672 32.6259 207.427 33.3816 207.427 34.3097C207.427 35.6354 207.911 36.6364 208.879 37.3125C209.846 37.9886 211.079 38.3267 212.577 38.3267ZM247.717 12.4545V18.0227H230.158V12.4545H247.717ZM234.493 5.13636H241.692V33.8125C241.692 34.7803 241.838 35.5227 242.129 36.0398C242.434 36.5436 242.832 36.8883 243.323 37.0739C243.813 37.2595 244.357 37.3523 244.953 37.3523C245.404 37.3523 245.815 37.3191 246.186 37.2528C246.571 37.1866 246.862 37.1269 247.061 37.0739L248.274 42.7017C247.89 42.8343 247.34 42.9801 246.624 43.1392C245.921 43.2983 245.059 43.3911 244.039 43.4176C242.235 43.4706 240.611 43.1989 239.166 42.6023C237.721 41.9924 236.574 41.0511 235.726 39.7784C234.891 38.5057 234.48 36.9148 234.493 35.0057V5.13636ZM265.124 43.5966C262.141 43.5966 259.556 42.9403 257.368 41.6278C255.181 40.3153 253.484 38.4792 252.277 36.1193C251.084 33.7595 250.487 31.0019 250.487 27.8466C250.487 24.6913 251.084 21.9271 252.277 19.554C253.484 17.1809 255.181 15.3381 257.368 14.0256C259.556 12.7131 262.141 12.0568 265.124 12.0568C268.107 12.0568 270.692 12.7131 272.879 14.0256C275.067 15.3381 276.757 17.1809 277.951 19.554C279.157 21.9271 279.76 24.6913 279.76 27.8466C279.76 31.0019 279.157 33.7595 277.951 36.1193C276.757 38.4792 275.067 40.3153 272.879 41.6278C270.692 42.9403 268.107 43.5966 265.124 43.5966ZM265.164 37.8295C266.781 37.8295 268.133 37.3854 269.22 36.4972C270.308 35.5956 271.116 34.3892 271.647 32.8778C272.19 31.3665 272.462 29.6828 272.462 27.8267C272.462 25.9574 272.19 24.267 271.647 22.7557C271.116 21.2311 270.308 20.018 269.22 19.1165C268.133 18.215 266.781 17.7642 265.164 17.7642C263.506 17.7642 262.128 18.215 261.027 19.1165C259.94 20.018 259.125 21.2311 258.581 22.7557C258.051 24.267 257.786 25.9574 257.786 27.8267C257.786 29.6828 258.051 31.3665 258.581 32.8778C259.125 34.3892 259.94 35.5956 261.027 36.4972C262.128 37.3854 263.506 37.8295 265.164 37.8295ZM284.26 43V12.4545H291.24V17.5455H291.559C292.115 15.7822 293.07 14.4233 294.422 13.4688C295.788 12.5009 297.345 12.017 299.095 12.017C299.493 12.017 299.937 12.0369 300.428 12.0767C300.932 12.1032 301.349 12.1496 301.681 12.2159V18.8381C301.376 18.732 300.892 18.6392 300.229 18.5597C299.579 18.4669 298.95 18.4205 298.34 18.4205C297.027 18.4205 295.847 18.7055 294.8 19.2756C293.766 19.8324 292.951 20.608 292.354 21.6023C291.757 22.5966 291.459 23.7434 291.459 25.0426V43H284.26ZM332.387 12.4545V18.0227H314.827V12.4545H332.387ZM319.162 5.13636H326.361V33.8125C326.361 34.7803 326.507 35.5227 326.799 36.0398C327.104 36.5436 327.501 36.8883 327.992 37.0739C328.482 37.2595 329.026 37.3523 329.623 37.3523C330.073 37.3523 330.484 37.3191 330.856 37.2528C331.24 37.1866 331.532 37.1269 331.731 37.0739L332.944 42.7017C332.559 42.8343 332.009 42.9801 331.293 43.1392C330.59 43.2983 329.729 43.3911 328.708 43.4176C326.905 43.4706 325.281 43.1989 323.836 42.6023C322.391 41.9924 321.244 41.0511 320.395 39.7784C319.56 38.5057 319.149 36.9148 319.162 35.0057V5.13636ZM349.793 43.5966C346.81 43.5966 344.225 42.9403 342.038 41.6278C339.85 40.3153 338.153 38.4792 336.947 36.1193C335.753 33.7595 335.157 31.0019 335.157 27.8466C335.157 24.6913 335.753 21.9271 336.947 19.554C338.153 17.1809 339.85 15.3381 342.038 14.0256C344.225 12.7131 346.81 12.0568 349.793 12.0568C352.776 12.0568 355.361 12.7131 357.549 14.0256C359.736 15.3381 361.427 17.1809 362.62 19.554C363.826 21.9271 364.43 24.6913 364.43 27.8466C364.43 31.0019 363.826 33.7595 362.62 36.1193C361.427 38.4792 359.736 40.3153 357.549 41.6278C355.361 42.9403 352.776 43.5966 349.793 43.5966ZM349.833 37.8295C351.45 37.8295 352.803 37.3854 353.89 36.4972C354.977 35.5956 355.786 34.3892 356.316 32.8778C356.859 31.3665 357.131 29.6828 357.131 27.8267C357.131 25.9574 356.859 24.267 356.316 22.7557C355.786 21.2311 354.977 20.018 353.89 19.1165C352.803 18.215 351.45 17.7642 349.833 17.7642C348.176 17.7642 346.797 18.215 345.697 19.1165C344.609 20.018 343.794 21.2311 343.251 22.7557C342.72 24.267 342.455 25.9574 342.455 27.8267C342.455 29.6828 342.72 31.3665 343.251 32.8778C343.794 34.3892 344.609 35.5956 345.697 36.4972C346.797 37.3854 348.176 37.8295 349.833 37.8295ZM382.254 43.5966C379.271 43.5966 376.685 42.9403 374.498 41.6278C372.31 40.3153 370.613 38.4792 369.407 36.1193C368.214 33.7595 367.617 31.0019 367.617 27.8466C367.617 24.6913 368.214 21.9271 369.407 19.554C370.613 17.1809 372.31 15.3381 374.498 14.0256C376.685 12.7131 379.271 12.0568 382.254 12.0568C385.236 12.0568 387.822 12.7131 390.009 14.0256C392.197 15.3381 393.887 17.1809 395.08 19.554C396.287 21.9271 396.89 24.6913 396.89 27.8466C396.89 31.0019 396.287 33.7595 395.08 36.1193C393.887 38.4792 392.197 40.3153 390.009 41.6278C387.822 42.9403 385.236 43.5966 382.254 43.5966ZM382.293 37.8295C383.911 37.8295 385.263 37.3854 386.35 36.4972C387.437 35.5956 388.246 34.3892 388.776 32.8778C389.32 31.3665 389.592 29.6828 389.592 27.8267C389.592 25.9574 389.32 24.267 388.776 22.7557C388.246 21.2311 387.437 20.018 386.35 19.1165C385.263 18.215 383.911 17.7642 382.293 17.7642C380.636 17.7642 379.257 18.215 378.157 19.1165C377.07 20.018 376.254 21.2311 375.711 22.7557C375.181 24.267 374.915 25.9574 374.915 27.8267C374.915 29.6828 375.181 31.3665 375.711 32.8778C376.254 34.3892 377.07 35.5956 378.157 36.4972C379.257 37.3854 380.636 37.8295 382.293 37.8295ZM408.589 2.27273V43H401.39V2.27273H408.589ZM438.524 20.5284L431.961 21.2443C431.775 20.5814 431.451 19.9583 430.987 19.375C430.536 18.7917 429.926 18.321 429.157 17.9631C428.388 17.6051 427.447 17.4261 426.333 17.4261C424.835 17.4261 423.576 17.7509 422.555 18.4006C421.547 19.0502 421.05 19.892 421.063 20.9261C421.05 21.8144 421.375 22.5369 422.038 23.0938C422.714 23.6506 423.828 24.108 425.379 24.4659L430.589 25.5795C433.479 26.2027 435.627 27.1903 437.032 28.5426C438.451 29.8949 439.167 31.6648 439.18 33.8523C439.167 35.7746 438.603 37.4716 437.489 38.9432C436.389 40.4015 434.858 41.5417 432.896 42.3636C430.934 43.1856 428.68 43.5966 426.134 43.5966C422.396 43.5966 419.386 42.8144 417.106 41.25C414.826 39.6723 413.467 37.4782 413.029 34.6676L420.049 33.9915C420.367 35.3703 421.043 36.411 422.078 37.1136C423.112 37.8163 424.457 38.1676 426.114 38.1676C427.825 38.1676 429.197 37.8163 430.231 37.1136C431.278 36.411 431.802 35.5426 431.802 34.5085C431.802 33.6335 431.464 32.911 430.788 32.3409C430.125 31.7708 429.091 31.3333 427.685 31.0284L422.475 29.9347C419.545 29.3248 417.378 28.2973 415.972 26.8523C414.567 25.3939 413.871 23.5511 413.884 21.3239C413.871 19.4413 414.382 17.8106 415.416 16.4318C416.463 15.0398 417.915 13.9659 419.771 13.2102C421.64 12.4413 423.794 12.0568 426.234 12.0568C429.813 12.0568 432.631 12.8191 434.685 14.3438C436.754 15.8684 438.033 17.9299 438.524 20.5284Z" fill="white"/>
<path d="M485.985 12.4545V16.4318H469.519V12.4545H485.985ZM474.451 43V8.23864C474.451 6.48863 474.862 5.0303 475.684 3.86363C476.506 2.69697 477.573 1.82197 478.885 1.23863C480.198 0.6553 481.583 0.363634 483.042 0.363634C484.195 0.363634 485.136 0.456437 485.865 0.642045C486.595 0.82765 487.138 0.999998 487.496 1.15909L486.144 5.21591C485.905 5.13636 485.574 5.03693 485.15 4.91761C484.739 4.79829 484.195 4.73863 483.519 4.73863C481.968 4.73863 480.847 5.12973 480.158 5.91193C479.482 6.69413 479.144 7.84091 479.144 9.35227V43H474.451ZM502.103 43.6364C499.346 43.6364 496.926 42.9801 494.845 41.6676C492.777 40.3551 491.159 38.5189 489.993 36.1591C488.839 33.7992 488.263 31.0417 488.263 27.8864C488.263 24.7045 488.839 21.9271 489.993 19.554C491.159 17.1809 492.777 15.3381 494.845 14.0256C496.926 12.7131 499.346 12.0568 502.103 12.0568C504.861 12.0568 507.274 12.7131 509.342 14.0256C511.424 15.3381 513.041 17.1809 514.194 19.554C515.361 21.9271 515.944 24.7045 515.944 27.8864C515.944 31.0417 515.361 33.7992 514.194 36.1591C513.041 38.5189 511.424 40.3551 509.342 41.6676C507.274 42.9801 504.861 43.6364 502.103 43.6364ZM502.103 39.4205C504.198 39.4205 505.922 38.8835 507.274 37.8097C508.626 36.7358 509.627 35.3239 510.277 33.5739C510.926 31.8239 511.251 29.928 511.251 27.8864C511.251 25.8447 510.926 23.9422 510.277 22.179C509.627 20.4157 508.626 18.9905 507.274 17.9034C505.922 16.8163 504.198 16.2727 502.103 16.2727C500.009 16.2727 498.285 16.8163 496.933 17.9034C495.581 18.9905 494.58 20.4157 493.93 22.179C493.281 23.9422 492.956 25.8447 492.956 27.8864C492.956 29.928 493.281 31.8239 493.93 33.5739C494.58 35.3239 495.581 36.7358 496.933 37.8097C498.285 38.8835 500.009 39.4205 502.103 39.4205ZM521.498 43V12.4545H526.033V17.0682H526.351C526.908 15.5568 527.915 14.3305 529.373 13.3892C530.832 12.4479 532.476 11.9773 534.305 11.9773C534.65 11.9773 535.081 11.9839 535.598 11.9972C536.115 12.0104 536.506 12.0303 536.771 12.0568V16.8295C536.612 16.7898 536.248 16.7301 535.677 16.6506C535.121 16.5578 534.531 16.5114 533.908 16.5114C532.423 16.5114 531.097 16.8229 529.93 17.446C528.777 18.0559 527.862 18.9044 527.186 19.9915C526.523 21.0653 526.192 22.2917 526.192 23.6705V43H521.498ZM554.864 43V12.4545H559.398V17.2273H559.796C560.432 15.5966 561.46 14.3305 562.879 13.429C564.297 12.5142 566.001 12.0568 567.989 12.0568C570.004 12.0568 571.682 12.5142 573.021 13.429C574.373 14.3305 575.427 15.5966 576.182 17.2273H576.501C577.283 15.6496 578.456 14.3968 580.021 13.4688C581.585 12.5275 583.461 12.0568 585.648 12.0568C588.379 12.0568 590.613 12.9119 592.35 14.6222C594.087 16.3191 594.955 18.964 594.955 22.5568V43H590.262V22.5568C590.262 20.303 589.646 18.6922 588.413 17.7244C587.18 16.7566 585.728 16.2727 584.057 16.2727C581.91 16.2727 580.246 16.9223 579.066 18.2216C577.886 19.5076 577.296 21.1383 577.296 23.1136V43H572.523V22.0795C572.523 20.3428 571.96 18.9441 570.833 17.8835C569.706 16.8097 568.254 16.2727 566.478 16.2727C565.258 16.2727 564.118 16.5975 563.057 17.2472C562.01 17.8968 561.162 18.7983 560.512 19.9517C559.876 21.0919 559.557 22.411 559.557 23.9091V43H554.864ZM610.915 43.7159C608.979 43.7159 607.223 43.3513 605.645 42.6222C604.067 41.8797 602.814 40.8125 601.886 39.4205C600.958 38.0152 600.494 36.3182 600.494 34.3295C600.494 32.5795 600.839 31.161 601.528 30.0739C602.218 28.9735 603.139 28.1117 604.293 27.4886C605.446 26.8655 606.719 26.4015 608.111 26.0966C609.516 25.7784 610.928 25.5265 612.347 25.3409C614.203 25.1023 615.707 24.9233 616.861 24.804C618.028 24.6714 618.876 24.4527 619.406 24.1477C619.95 23.8428 620.222 23.3125 620.222 22.5568V22.3977C620.222 20.4356 619.685 18.911 618.611 17.8239C617.55 16.7367 615.939 16.1932 613.778 16.1932C611.538 16.1932 609.781 16.6837 608.509 17.6648C607.236 18.6458 606.341 19.6932 605.824 20.8068L601.369 19.2159C602.165 17.3598 603.225 15.9148 604.551 14.8807C605.89 13.8333 607.349 13.1042 608.926 12.6932C610.517 12.2689 612.081 12.0568 613.619 12.0568C614.6 12.0568 615.727 12.1761 617 12.4148C618.286 12.6401 619.526 13.1108 620.719 13.8267C621.925 14.5426 622.926 15.6231 623.722 17.0682C624.517 18.5133 624.915 20.4489 624.915 22.875V43H620.222V38.8636H619.983C619.665 39.5265 619.135 40.2358 618.392 40.9915C617.65 41.7472 616.662 42.3902 615.429 42.9205C614.196 43.4508 612.691 43.7159 610.915 43.7159ZM611.631 39.5C613.487 39.5 615.051 39.1354 616.324 38.4062C617.61 37.6771 618.578 36.7358 619.227 35.5824C619.89 34.429 620.222 33.2159 620.222 31.9432V27.6477C620.023 27.8864 619.585 28.1051 618.909 28.304C618.246 28.4896 617.477 28.6553 616.602 28.8011C615.741 28.9337 614.899 29.053 614.077 29.1591C613.268 29.2519 612.612 29.3314 612.108 29.3977C610.888 29.5568 609.748 29.8153 608.688 30.1733C607.64 30.518 606.792 31.0417 606.142 31.7443C605.506 32.4337 605.188 33.375 605.188 34.5682C605.188 36.1989 605.791 37.4318 606.997 38.267C608.217 39.089 609.761 39.5 611.631 39.5ZM636.246 31.8636L636.166 26.0568H637.121L650.485 12.4545H656.291L642.053 26.8523H641.655L636.246 31.8636ZM631.871 43V2.27273H636.564V43H631.871ZM651.28 43L639.348 27.8864L642.689 24.625L657.246 43H651.28ZM660.722 43V12.4545H665.415V43H660.722ZM663.108 7.36364C662.193 7.36364 661.405 7.05208 660.742 6.42898C660.092 5.80587 659.767 5.05682 659.767 4.18182C659.767 3.30682 660.092 2.55776 660.742 1.93466C661.405 1.31155 662.193 1 663.108 1C664.023 1 664.805 1.31155 665.455 1.93466C666.118 2.55776 666.449 3.30682 666.449 4.18182C666.449 5.05682 666.118 5.80587 665.455 6.42898C664.805 7.05208 664.023 7.36364 663.108 7.36364ZM677.094 24.625V43H672.401V12.4545H676.935V17.2273H677.333C678.049 15.6761 679.136 14.4299 680.594 13.4886C682.052 12.5341 683.935 12.0568 686.242 12.0568C688.31 12.0568 690.12 12.4811 691.671 13.3295C693.222 14.1648 694.428 15.4375 695.29 17.1477C696.152 18.8447 696.583 20.9924 696.583 23.5909V43H691.89V23.9091C691.89 21.5095 691.266 19.6402 690.02 18.3011C688.774 16.9489 687.064 16.2727 684.89 16.2727C683.391 16.2727 682.052 16.5975 680.873 17.2472C679.706 17.8968 678.784 18.8447 678.108 20.0909C677.432 21.3371 677.094 22.8485 677.094 24.625ZM715.878 55.0909C713.611 55.0909 711.662 54.7992 710.032 54.2159C708.401 53.6458 707.042 52.8902 705.955 51.9489C704.881 51.0208 704.026 50.0265 703.39 48.9659L707.128 46.3409C707.553 46.8977 708.089 47.5341 708.739 48.25C709.389 48.9792 710.277 49.6089 711.404 50.1392C712.544 50.6828 714.035 50.9545 715.878 50.9545C718.344 50.9545 720.379 50.358 721.983 49.1648C723.588 47.9716 724.39 46.1023 724.39 43.5568V37.3523H723.992C723.647 37.9091 723.157 38.5985 722.52 39.4205C721.897 40.2292 720.996 40.9517 719.816 41.5881C718.649 42.2112 717.071 42.5227 715.083 42.5227C712.617 42.5227 710.403 41.9394 708.441 40.7727C706.492 39.6061 704.947 37.9091 703.807 35.6818C702.68 33.4545 702.117 30.75 702.117 27.5682C702.117 24.4394 702.667 21.715 703.768 19.3949C704.868 17.0616 706.399 15.2585 708.361 13.9858C710.323 12.6998 712.59 12.0568 715.162 12.0568C717.151 12.0568 718.729 12.3883 719.895 13.0511C721.075 13.7008 721.977 14.4432 722.6 15.2784C723.236 16.1004 723.727 16.7765 724.071 17.3068H724.549V12.4545H729.083V43.875C729.083 46.5 728.486 48.6345 727.293 50.2784C726.113 51.9356 724.522 53.1487 722.52 53.9176C720.532 54.6998 718.318 55.0909 715.878 55.0909ZM715.719 38.3068C717.602 38.3068 719.193 37.8759 720.492 37.0142C721.791 36.1525 722.779 34.9129 723.455 33.2955C724.131 31.678 724.469 29.7424 724.469 27.4886C724.469 25.2879 724.138 23.3456 723.475 21.6619C722.812 19.9782 721.831 18.6591 720.532 17.7045C719.232 16.75 717.628 16.2727 715.719 16.2727C713.731 16.2727 712.073 16.7765 710.748 17.7841C709.435 18.7917 708.447 20.1439 707.785 21.8409C707.135 23.5379 706.81 25.4205 706.81 27.4886C706.81 29.6098 707.142 31.4858 707.804 33.1165C708.481 34.7339 709.475 36.0066 710.787 36.9347C712.113 37.8494 713.757 38.3068 715.719 38.3068ZM87.5864 86.4545V90.4318H71.7569V86.4545H87.5864ZM76.3705 79.1364H81.0637V108.25C81.0637 109.576 81.2559 110.57 81.6404 111.233C82.0381 111.883 82.5419 112.32 83.1518 112.545C83.7749 112.758 84.4311 112.864 85.1205 112.864C85.6375 112.864 86.0618 112.837 86.3932 112.784C86.7247 112.718 86.9898 112.665 87.1887 112.625L88.1432 116.841C87.825 116.96 87.3809 117.08 86.8108 117.199C86.2408 117.331 85.5182 117.398 84.6432 117.398C83.3175 117.398 82.0182 117.113 80.7455 116.543C79.486 115.973 78.4387 115.104 77.6035 113.938C76.7815 112.771 76.3705 111.299 76.3705 109.523V79.1364ZM98.3855 98.625V117H93.6923V76.2727H98.3855V91.2273H98.7832C99.4991 89.6496 100.573 88.3968 102.005 87.4688C103.45 86.5275 105.372 86.0568 107.772 86.0568C109.853 86.0568 111.676 86.4744 113.241 87.3097C114.805 88.1316 116.018 89.3977 116.88 91.108C117.755 92.8049 118.192 94.9659 118.192 97.5909V117H113.499V97.9091C113.499 95.483 112.869 93.607 111.61 92.2812C110.364 90.9422 108.634 90.2727 106.42 90.2727C104.882 90.2727 103.503 90.5975 102.283 91.2472C101.077 91.8968 100.122 92.8447 99.4196 94.0909C98.7302 95.3371 98.3855 96.8485 98.3855 98.625ZM137.577 117.636C134.82 117.636 132.4 116.98 130.319 115.668C128.251 114.355 126.633 112.519 125.467 110.159C124.313 107.799 123.736 105.042 123.736 101.886C123.736 98.7045 124.313 95.9271 125.467 93.554C126.633 91.1809 128.251 89.3381 130.319 88.0256C132.4 86.7131 134.82 86.0568 137.577 86.0568C140.335 86.0568 142.748 86.7131 144.816 88.0256C146.897 89.3381 148.515 91.1809 149.668 93.554C150.835 95.9271 151.418 98.7045 151.418 101.886C151.418 105.042 150.835 107.799 149.668 110.159C148.515 112.519 146.897 114.355 144.816 115.668C142.748 116.98 140.335 117.636 137.577 117.636ZM137.577 113.42C139.672 113.42 141.396 112.884 142.748 111.81C144.1 110.736 145.101 109.324 145.751 107.574C146.4 105.824 146.725 103.928 146.725 101.886C146.725 99.8447 146.4 97.9422 145.751 96.179C145.101 94.4157 144.1 92.9905 142.748 91.9034C141.396 90.8163 139.672 90.2727 137.577 90.2727C135.483 90.2727 133.759 90.8163 132.407 91.9034C131.055 92.9905 130.054 94.4157 129.404 96.179C128.754 97.9422 128.43 99.8447 128.43 101.886C128.43 103.928 128.754 105.824 129.404 107.574C130.054 109.324 131.055 110.736 132.407 111.81C133.759 112.884 135.483 113.42 137.577 113.42ZM178.609 93.2955L174.393 94.4886C174.128 93.786 173.737 93.1032 173.219 92.4403C172.716 91.7642 172.026 91.2074 171.151 90.7699C170.276 90.3324 169.156 90.1136 167.791 90.1136C165.921 90.1136 164.363 90.5445 163.117 91.4062C161.884 92.2547 161.268 93.3352 161.268 94.6477C161.268 95.8144 161.692 96.7358 162.541 97.4119C163.389 98.0881 164.715 98.6515 166.518 99.1023L171.052 100.216C173.783 100.879 175.818 101.893 177.157 103.259C178.496 104.611 179.166 106.354 179.166 108.489C179.166 110.239 178.662 111.803 177.654 113.182C176.66 114.561 175.268 115.648 173.478 116.443C171.688 117.239 169.607 117.636 167.234 117.636C164.118 117.636 161.54 116.96 159.498 115.608C157.456 114.256 156.164 112.28 155.62 109.682L160.075 108.568C160.499 110.212 161.301 111.445 162.481 112.267C163.674 113.089 165.232 113.5 167.154 113.5C169.342 113.5 171.078 113.036 172.364 112.108C173.664 111.167 174.313 110.04 174.313 108.727C174.313 107.667 173.942 106.778 173.2 106.062C172.457 105.333 171.317 104.79 169.779 104.432L164.688 103.239C161.891 102.576 159.836 101.548 158.523 100.156C157.224 98.7509 156.575 96.9943 156.575 94.8864C156.575 93.1629 157.058 91.6383 158.026 90.3125C159.007 88.9867 160.34 87.946 162.023 87.1903C163.72 86.4347 165.643 86.0568 167.791 86.0568C170.813 86.0568 173.186 86.7197 174.91 88.0455C176.647 89.3712 177.88 91.1212 178.609 93.2955ZM197.427 117.636C194.484 117.636 191.945 116.987 189.81 115.688C187.689 114.375 186.052 112.545 184.899 110.199C183.758 107.839 183.188 105.095 183.188 101.966C183.188 98.8371 183.758 96.0795 184.899 93.6932C186.052 91.2936 187.656 89.4242 189.711 88.0852C191.779 86.733 194.192 86.0568 196.95 86.0568C198.541 86.0568 200.112 86.322 201.663 86.8523C203.214 87.3826 204.626 88.2443 205.899 89.4375C207.171 90.6174 208.185 92.1818 208.941 94.1307C209.697 96.0795 210.075 98.4792 210.075 101.33V103.318H186.529V99.2614H205.302C205.302 97.5379 204.957 96 204.268 94.6477C203.592 93.2955 202.624 92.2282 201.364 91.446C200.118 90.6638 198.647 90.2727 196.95 90.2727C195.08 90.2727 193.463 90.7367 192.097 91.6648C190.745 92.5795 189.704 93.7727 188.975 95.2443C188.246 96.7159 187.881 98.2936 187.881 99.9773V102.682C187.881 104.989 188.279 106.944 189.075 108.548C189.883 110.139 191.004 111.352 192.435 112.188C193.867 113.009 195.531 113.42 197.427 113.42C198.66 113.42 199.774 113.248 200.768 112.903C201.775 112.545 202.644 112.015 203.373 111.312C204.102 110.597 204.666 109.708 205.063 108.648L209.597 109.92C209.12 111.458 208.318 112.811 207.191 113.977C206.064 115.131 204.672 116.032 203.015 116.682C201.358 117.318 199.495 117.636 197.427 117.636ZM254.572 86.4545L243.694 117H235.74L224.862 86.4545H232.538L239.558 109.145H239.876L246.916 86.4545H254.572ZM257.944 117V86.4545H265.142V117H257.944ZM261.563 82.1193C260.423 82.1193 259.442 81.7415 258.62 80.9858C257.798 80.2169 257.387 79.2955 257.387 78.2216C257.387 77.1345 257.798 76.2131 258.62 75.4574C259.442 74.6884 260.423 74.304 261.563 74.304C262.716 74.304 263.697 74.6884 264.506 75.4574C265.328 76.2131 265.739 77.1345 265.739 78.2216C265.739 79.2955 265.328 80.2169 264.506 80.9858C263.697 81.7415 262.716 82.1193 261.563 82.1193ZM282.27 117.537C279.871 117.537 277.723 116.92 275.827 115.688C273.931 114.455 272.433 112.665 271.333 110.318C270.232 107.972 269.682 105.121 269.682 101.767C269.682 98.3731 270.239 95.5095 271.353 93.1761C272.48 90.8295 273.998 89.0597 275.907 87.8665C277.816 86.66 279.944 86.0568 282.29 86.0568C284.08 86.0568 285.552 86.3617 286.705 86.9716C287.858 87.5682 288.773 88.2907 289.449 89.1392C290.125 89.9744 290.649 90.7633 291.02 91.5057H291.319V76.2727H298.537V117H291.458V112.188H291.02C290.649 112.93 290.112 113.719 289.41 114.554C288.707 115.376 287.779 116.079 286.625 116.662C285.472 117.245 284.02 117.537 282.27 117.537ZM284.279 111.631C285.803 111.631 287.103 111.22 288.177 110.398C289.25 109.562 290.066 108.402 290.623 106.918C291.179 105.433 291.458 103.703 291.458 101.727C291.458 99.7519 291.179 98.035 290.623 96.5767C290.079 95.1184 289.27 93.9848 288.196 93.1761C287.136 92.3674 285.83 91.9631 284.279 91.9631C282.675 91.9631 281.336 92.3807 280.262 93.2159C279.188 94.0511 278.379 95.2045 277.836 96.6761C277.292 98.1477 277.02 99.8314 277.02 101.727C277.02 103.636 277.292 105.34 277.836 106.838C278.392 108.323 279.208 109.496 280.282 110.358C281.369 111.206 282.701 111.631 284.279 111.631ZM318.121 117.597C315.059 117.597 312.414 116.96 310.187 115.688C307.973 114.402 306.269 112.585 305.076 110.239C303.883 107.879 303.286 105.101 303.286 101.906C303.286 98.7642 303.883 96.0066 305.076 93.6335C306.282 91.2472 307.966 89.3911 310.127 88.0653C312.288 86.7263 314.827 86.0568 317.743 86.0568C319.626 86.0568 321.403 86.3617 323.073 86.9716C324.757 87.5682 326.242 88.4962 327.528 89.7557C328.827 91.0152 329.848 92.6193 330.59 94.5682C331.332 96.5038 331.704 98.8106 331.704 101.489V103.696H306.667V98.8438H324.803C324.79 97.465 324.492 96.2386 323.908 95.1648C323.325 94.0777 322.51 93.2225 321.462 92.5994C320.428 91.9763 319.222 91.6648 317.843 91.6648C316.371 91.6648 315.079 92.0227 313.965 92.7386C312.851 93.4413 311.983 94.3693 311.36 95.5227C310.75 96.6629 310.438 97.9157 310.425 99.2812V103.517C310.425 105.294 310.75 106.818 311.4 108.091C312.049 109.35 312.957 110.318 314.124 110.994C315.291 111.657 316.656 111.989 318.221 111.989C319.268 111.989 320.216 111.843 321.064 111.551C321.913 111.246 322.649 110.802 323.272 110.219C323.895 109.635 324.366 108.913 324.684 108.051L331.405 108.807C330.981 110.583 330.172 112.134 328.979 113.46C327.799 114.773 326.288 115.794 324.445 116.523C322.602 117.239 320.494 117.597 318.121 117.597ZM349.508 117.597C346.525 117.597 343.94 116.94 341.752 115.628C339.565 114.315 337.868 112.479 336.661 110.119C335.468 107.759 334.871 105.002 334.871 101.847C334.871 98.6913 335.468 95.9271 336.661 93.554C337.868 91.1809 339.565 89.3381 341.752 88.0256C343.94 86.7131 346.525 86.0568 349.508 86.0568C352.491 86.0568 355.076 86.7131 357.263 88.0256C359.451 89.3381 361.141 91.1809 362.334 93.554C363.541 95.9271 364.144 98.6913 364.144 101.847C364.144 105.002 363.541 107.759 362.334 110.119C361.141 112.479 359.451 114.315 357.263 115.628C355.076 116.94 352.491 117.597 349.508 117.597ZM349.547 111.83C351.165 111.83 352.517 111.385 353.604 110.497C354.691 109.596 355.5 108.389 356.03 106.878C356.574 105.366 356.846 103.683 356.846 101.827C356.846 99.9574 356.574 98.267 356.03 96.7557C355.5 95.2311 354.691 94.018 353.604 93.1165C352.517 92.215 351.165 91.7642 349.547 91.7642C347.89 91.7642 346.512 92.215 345.411 93.1165C344.324 94.018 343.509 95.2311 342.965 96.7557C342.435 98.267 342.17 99.9574 342.17 101.827C342.17 103.683 342.435 105.366 342.965 106.878C343.509 108.389 344.324 109.596 345.411 110.497C346.512 111.385 347.89 111.83 349.547 111.83ZM392.786 94.5284L386.224 95.2443C386.038 94.5814 385.713 93.9583 385.249 93.375C384.799 92.7917 384.189 92.321 383.42 91.9631C382.651 91.6051 381.71 91.4261 380.596 91.4261C379.098 91.4261 377.838 91.7509 376.817 92.4006C375.81 93.0502 375.313 93.892 375.326 94.9261C375.313 95.8144 375.638 96.5369 376.3 97.0938C376.977 97.6506 378.09 98.108 379.641 98.4659L384.852 99.5795C387.742 100.203 389.889 101.19 391.295 102.543C392.713 103.895 393.429 105.665 393.442 107.852C393.429 109.775 392.866 111.472 391.752 112.943C390.652 114.402 389.121 115.542 387.158 116.364C385.196 117.186 382.942 117.597 380.397 117.597C376.658 117.597 373.649 116.814 371.369 115.25C369.088 113.672 367.729 111.478 367.292 108.668L374.312 107.991C374.63 109.37 375.306 110.411 376.34 111.114C377.374 111.816 378.72 112.168 380.377 112.168C382.087 112.168 383.46 111.816 384.494 111.114C385.541 110.411 386.065 109.543 386.065 108.509C386.065 107.634 385.727 106.911 385.05 106.341C384.388 105.771 383.353 105.333 381.948 105.028L376.738 103.935C373.808 103.325 371.64 102.297 370.235 100.852C368.83 99.3939 368.134 97.5511 368.147 95.3239C368.134 93.4413 368.644 91.8106 369.678 90.4318C370.726 89.0398 372.177 87.9659 374.033 87.2102C375.903 86.4413 378.057 86.0568 380.496 86.0568C384.076 86.0568 386.893 86.8191 388.948 88.3438C391.016 89.8684 392.296 91.9299 392.786 94.5284ZM423.333 129.091C420.748 129.091 418.527 128.74 416.671 128.037C414.815 127.348 413.324 126.42 412.197 125.253C411.07 124.086 410.288 122.794 409.85 121.375L416.333 119.804C416.625 120.401 417.049 120.991 417.606 121.574C418.163 122.17 418.912 122.661 419.853 123.045C420.808 123.443 422.008 123.642 423.453 123.642C425.494 123.642 427.185 123.145 428.524 122.151C429.863 121.17 430.532 119.552 430.532 117.298V111.511H430.174C429.803 112.254 429.259 113.016 428.543 113.798C427.841 114.58 426.906 115.237 425.74 115.767C424.586 116.297 423.134 116.562 421.384 116.562C419.038 116.562 416.91 116.012 415.001 114.912C413.105 113.798 411.594 112.141 410.467 109.94C409.353 107.726 408.796 104.955 408.796 101.628C408.796 98.2737 409.353 95.4432 410.467 93.1364C411.594 90.8163 413.112 89.0597 415.021 87.8665C416.93 86.66 419.058 86.0568 421.404 86.0568C423.194 86.0568 424.666 86.3617 425.819 86.9716C426.986 87.5682 427.914 88.2907 428.603 89.1392C429.293 89.9744 429.816 90.7633 430.174 91.5057H430.572V86.4545H437.671V117.497C437.671 120.109 437.048 122.27 435.802 123.98C434.556 125.69 432.852 126.97 430.691 127.818C428.53 128.667 426.078 129.091 423.333 129.091ZM423.393 110.915C424.918 110.915 426.217 110.544 427.291 109.801C428.365 109.059 429.18 107.991 429.737 106.599C430.293 105.207 430.572 103.537 430.572 101.588C430.572 99.6657 430.293 97.982 429.737 96.5369C429.193 95.0919 428.384 93.9716 427.311 93.1761C426.25 92.3674 424.944 91.9631 423.393 91.9631C421.789 91.9631 420.45 92.3807 419.376 93.2159C418.302 94.0511 417.493 95.1979 416.95 96.6562C416.406 98.1013 416.134 99.7453 416.134 101.588C416.134 103.457 416.406 105.095 416.95 106.5C417.507 107.892 418.322 108.979 419.396 109.761C420.483 110.53 421.815 110.915 423.393 110.915ZM456.763 117.597C453.78 117.597 451.195 116.94 449.007 115.628C446.82 114.315 445.123 112.479 443.916 110.119C442.723 107.759 442.127 105.002 442.127 101.847C442.127 98.6913 442.723 95.9271 443.916 93.554C445.123 91.1809 446.82 89.3381 449.007 88.0256C451.195 86.7131 453.78 86.0568 456.763 86.0568C459.746 86.0568 462.331 86.7131 464.519 88.0256C466.706 89.3381 468.397 91.1809 469.59 93.554C470.796 95.9271 471.399 98.6913 471.399 101.847C471.399 105.002 470.796 107.759 469.59 110.119C468.397 112.479 466.706 114.315 464.519 115.628C462.331 116.94 459.746 117.597 456.763 117.597ZM456.803 111.83C458.42 111.83 459.772 111.385 460.86 110.497C461.947 109.596 462.755 108.389 463.286 106.878C463.829 105.366 464.101 103.683 464.101 101.827C464.101 99.9574 463.829 98.267 463.286 96.7557C462.755 95.2311 461.947 94.018 460.86 93.1165C459.772 92.215 458.42 91.7642 456.803 91.7642C455.146 91.7642 453.767 92.215 452.666 93.1165C451.579 94.018 450.764 95.2311 450.22 96.7557C449.69 98.267 449.425 99.9574 449.425 101.827C449.425 103.683 449.69 105.366 450.22 106.878C450.764 108.389 451.579 109.596 452.666 110.497C453.767 111.385 455.146 111.83 456.803 111.83ZM515.464 86.4545L504.586 117H496.632L485.754 86.4545H493.43L500.45 109.145H500.768L507.808 86.4545H515.464ZM518.836 117V86.4545H526.035V117H518.836ZM522.455 82.1193C521.315 82.1193 520.334 81.7415 519.512 80.9858C518.69 80.2169 518.279 79.2955 518.279 78.2216C518.279 77.1345 518.69 76.2131 519.512 75.4574C520.334 74.6884 521.315 74.304 522.455 74.304C523.608 74.304 524.589 74.6884 525.398 75.4574C526.22 76.2131 526.631 77.1345 526.631 78.2216C526.631 79.2955 526.22 80.2169 525.398 80.9858C524.589 81.7415 523.608 82.1193 522.455 82.1193ZM531.827 117V86.4545H538.807V91.5455H539.126C539.682 89.7822 540.637 88.4233 541.989 87.4688C543.355 86.5009 544.913 86.017 546.663 86.017C547.06 86.017 547.504 86.0369 547.995 86.0767C548.499 86.1032 548.916 86.1496 549.248 86.2159V92.8381C548.943 92.732 548.459 92.6392 547.796 92.5597C547.146 92.4669 546.517 92.4205 545.907 92.4205C544.594 92.4205 543.414 92.7055 542.367 93.2756C541.333 93.8324 540.518 94.608 539.921 95.6023C539.324 96.5966 539.026 97.7434 539.026 99.0426V117H531.827ZM560.663 117.616C558.728 117.616 556.984 117.272 555.433 116.582C553.895 115.88 552.676 114.846 551.774 113.48C550.886 112.115 550.442 110.431 550.442 108.429C550.442 106.705 550.76 105.28 551.396 104.153C552.033 103.027 552.901 102.125 554.001 101.449C555.102 100.773 556.341 100.262 557.72 99.9176C559.112 99.5597 560.551 99.3011 562.035 99.142C563.825 98.9564 565.277 98.7907 566.391 98.6449C567.504 98.4858 568.313 98.2472 568.817 97.929C569.334 97.5975 569.592 97.0871 569.592 96.3977V96.2784C569.592 94.7803 569.148 93.6203 568.26 92.7983C567.372 91.9763 566.092 91.5653 564.422 91.5653C562.659 91.5653 561.26 91.9498 560.226 92.7188C559.205 93.4877 558.516 94.3958 558.158 95.4432L551.436 94.4886C551.966 92.6326 552.841 91.0814 554.061 89.8352C555.281 88.5758 556.772 87.6345 558.535 87.0114C560.299 86.375 562.248 86.0568 564.382 86.0568C565.854 86.0568 567.319 86.2292 568.777 86.5739C570.235 86.9186 571.568 87.4886 572.774 88.2841C573.981 89.0663 574.948 90.1335 575.678 91.4858C576.42 92.8381 576.791 94.5284 576.791 96.5568V117H569.871V112.804H569.632C569.195 113.652 568.578 114.448 567.783 115.19C567 115.92 566.013 116.509 564.82 116.96C563.64 117.398 562.254 117.616 560.663 117.616ZM562.533 112.327C563.978 112.327 565.231 112.042 566.291 111.472C567.352 110.888 568.167 110.119 568.737 109.165C569.321 108.21 569.612 107.17 569.612 106.043V102.443C569.387 102.629 569.002 102.801 568.459 102.96C567.928 103.119 567.332 103.259 566.669 103.378C566.006 103.497 565.35 103.603 564.7 103.696C564.051 103.789 563.487 103.868 563.01 103.935C561.936 104.08 560.975 104.319 560.126 104.651C559.278 104.982 558.608 105.446 558.118 106.043C557.627 106.626 557.382 107.382 557.382 108.31C557.382 109.635 557.866 110.636 558.834 111.312C559.802 111.989 561.035 112.327 562.533 112.327ZM589.619 76.2727V117H582.42V76.2727H589.619Z" fill="#363430"/>
<path d="M603.993 120.92H659.993V64.92H603.993V120.92Z" fill="#060B13"/>
</svg>
