<svg width="600" height="840" viewBox="0 0 600 840" fill="none" xmlns="http://www.w3.org/2000/svg">
<g opacity="0.8">
<mask id="mask0_3_4407" style="mask-type:alpha" maskUnits="userSpaceOnUse" x="-564" y="-456" width="1728" height="1449">
<rect x="-564" y="-456" width="1728" height="1448.59" fill="url(#paint0_radial_3_4407)"/>
</mask>
<g mask="url(#mask0_3_4407)">
</g>
<g clip-path="url(#clip0_3_4407)">
<g opacity="0.7">
<path d="M123.122 533.26C123.661 532.91 123.814 532.19 123.464 531.651C123.114 531.112 122.394 530.959 121.855 531.309C121.316 531.658 121.163 532.379 121.513 532.918C121.862 533.457 122.583 533.61 123.122 533.26Z" fill="#9B51FF"/>
<path d="M195.312 411.488C195.851 411.138 196.004 410.418 195.655 409.879C195.305 409.34 194.584 409.186 194.046 409.536C193.507 409.886 193.353 410.606 193.703 411.145C194.053 411.684 194.773 411.837 195.312 411.488Z" fill="#9B51FF"/>
<path d="M279.641 458.043C280.18 457.693 280.333 456.973 279.984 456.434C279.634 455.895 278.914 455.742 278.375 456.091C277.836 456.441 277.682 457.161 278.032 457.7C278.382 458.239 279.102 458.393 279.641 458.043Z" fill="#9B51FF"/>
<path opacity="0.11" d="M112.253 576.38C112.791 576.03 112.945 575.31 112.595 574.771C112.245 574.232 111.525 574.079 110.986 574.428C110.447 574.778 110.294 575.498 110.643 576.037C110.993 576.576 111.714 576.73 112.253 576.38Z" fill="#9B51FF"/>
<path opacity="0.3" d="M232.065 389.028C232.604 388.678 232.758 387.958 232.408 387.419C232.058 386.88 231.338 386.727 230.799 387.076C230.26 387.426 230.107 388.146 230.456 388.685C230.806 389.224 231.527 389.378 232.065 389.028Z" fill="#9B51FF"/>
<path opacity="0.11" d="M48.917 450.996C49.4559 450.646 49.6092 449.925 49.2595 449.387C48.9098 448.848 48.1895 448.694 47.6506 449.044C47.1117 449.394 46.9583 450.114 47.308 450.653C47.6577 451.192 48.3781 451.345 48.917 450.996Z" fill="#9B51FF"/>
<path opacity="0.11" d="M232.949 448.104C233.488 447.755 233.642 447.034 233.292 446.495C232.942 445.957 232.222 445.803 231.683 446.153C231.144 446.503 230.991 447.223 231.34 447.762C231.69 448.301 232.41 448.454 232.949 448.104Z" fill="#9B51FF"/>
<path opacity="0.11" d="M30.2625 550.513C31.3412 549.813 31.6481 548.371 30.9481 547.292C30.2481 546.213 28.8061 545.906 27.7274 546.606C26.6487 547.307 26.3417 548.748 27.0417 549.827C27.7418 550.906 29.1837 551.213 30.2625 550.513Z" fill="#9B51FF"/>
<path d="M7.60403 516.662C8.41284 516.137 8.64301 515.056 8.11812 514.247C7.59324 513.439 6.51203 513.208 5.70322 513.733C4.89441 514.258 4.66429 515.339 5.18917 516.148C5.71406 516.957 6.79522 517.187 7.60403 516.662Z" fill="#9B51FF"/>
<path d="M6.76881 662.879C7.57761 662.354 7.80782 661.273 7.28293 660.464C6.75805 659.655 5.67687 659.425 4.86806 659.95C4.05925 660.475 3.82905 661.556 4.35394 662.365C4.87882 663.174 5.96 663.404 6.76881 662.879Z" fill="#9B51FF"/>
<path d="M343.541 472.072C344.35 471.547 344.58 470.466 344.055 469.657C343.53 468.849 342.449 468.618 341.64 469.143C340.831 469.668 340.601 470.749 341.126 471.558C341.651 472.367 342.732 472.597 343.541 472.072Z" fill="#9B51FF"/>
<path d="M123.687 631.4C124.496 630.875 124.726 629.794 124.201 628.985C123.676 628.176 122.595 627.946 121.786 628.471C120.977 628.996 120.747 630.077 121.272 630.886C121.797 631.695 122.878 631.925 123.687 631.4Z" fill="#9B51FF"/>
<path d="M339.298 397.13C340.107 396.606 340.337 395.524 339.812 394.716C339.287 393.907 338.206 393.677 337.397 394.201C336.588 394.726 336.358 395.808 336.883 396.616C337.408 397.425 338.489 397.655 339.298 397.13Z" fill="#9B51FF"/>
<path d="M327.887 328.234C328.696 327.709 328.926 326.627 328.401 325.819C327.876 325.01 326.795 324.78 325.986 325.305C325.177 325.829 324.947 326.911 325.472 327.719C325.997 328.528 327.078 328.758 327.887 328.234Z" fill="#9B51FF"/>
<path opacity="0.3" d="M88.7813 465.37C89.86 464.67 90.1669 463.228 89.4669 462.15C88.7669 461.071 87.3249 460.764 86.2462 461.464C85.1675 462.164 84.8605 463.606 85.5605 464.685C86.2605 465.763 87.7026 466.07 88.7813 465.37Z" fill="#9B51FF"/>
<path d="M43.792 396.061C44.8708 395.361 45.1777 393.919 44.4776 392.84C43.7776 391.761 42.3357 391.454 41.2569 392.154C40.1782 392.854 39.8712 394.296 40.5712 395.375C41.2713 396.454 42.7133 396.761 43.792 396.061Z" fill="#9B51FF"/>
<path d="M152.993 454.221C153.802 453.696 154.032 452.615 153.507 451.806C152.982 450.997 151.901 450.767 151.092 451.292C150.283 451.817 150.053 452.898 150.578 453.707C151.103 454.515 152.184 454.746 152.993 454.221Z" fill="#9B51FF"/>
<path opacity="0.3" d="M175.634 385.422C176.713 384.722 177.019 383.28 176.319 382.201C175.619 381.123 174.177 380.816 173.099 381.516C172.02 382.216 171.713 383.658 172.413 384.736C173.113 385.815 174.555 386.122 175.634 385.422Z" fill="#9B51FF"/>
<path opacity="0.3" d="M317.261 392.015C318.34 391.315 318.647 389.873 317.947 388.794C317.247 387.715 315.805 387.408 314.726 388.108C313.647 388.808 313.34 390.25 314.04 391.329C314.741 392.408 316.183 392.715 317.261 392.015Z" fill="#9B51FF"/>
<path opacity="0.3" d="M204.305 468.088C205.384 467.388 205.691 465.946 204.991 464.867C204.291 463.788 202.849 463.481 201.77 464.181C200.691 464.881 200.384 466.323 201.084 467.402C201.785 468.481 203.227 468.788 204.305 468.088Z" fill="#9B51FF"/>
<path opacity="0.11" d="M258.228 388.702C259.307 388.002 259.614 386.56 258.913 385.482C258.213 384.403 256.771 384.096 255.693 384.796C254.614 385.496 254.307 386.938 255.007 388.017C255.707 389.095 257.149 389.402 258.228 388.702Z" fill="#9B51FF"/>
<path opacity="0.11" d="M32.6601 114.185C33.7389 113.485 34.0458 112.043 33.3458 110.965C32.6457 109.886 31.2038 109.579 30.125 110.279C29.0463 110.979 28.7394 112.421 29.4394 113.5C30.1395 114.578 31.5814 114.885 32.6601 114.185Z" fill="#9B51FF"/>
<path d="M45.9683 120.809C46.7771 120.284 47.0073 119.203 46.4824 118.394C45.9575 117.585 44.8763 117.355 44.0675 117.88C43.2587 118.405 43.0285 119.486 43.5534 120.295C44.0783 121.103 45.1595 121.334 45.9683 120.809Z" fill="#9B51FF"/>
<path d="M64.8865 79.4029C65.6953 78.878 65.9255 77.7968 65.4006 76.988C64.8758 76.1792 63.7945 75.949 62.9857 76.4739C62.1769 76.9988 61.9468 78.08 62.4716 78.8888C62.9965 79.6976 64.0777 79.9277 64.8865 79.4029Z" fill="#9B51FF"/>
<path d="M54.429 154.162C54.9679 153.812 55.1213 153.091 54.7716 152.553C54.4218 152.014 53.7014 151.86 53.1625 152.21C52.6236 152.56 52.4703 153.28 52.82 153.819C53.1697 154.358 53.8901 154.511 54.429 154.162Z" fill="#9B51FF"/>
<path d="M267.255 16.0551C267.794 15.7054 267.947 14.985 267.597 14.4461C267.248 13.9072 266.527 13.7539 265.988 14.1036C265.45 14.4533 265.296 15.1737 265.646 15.7126C265.996 16.2515 266.716 16.4048 267.255 16.0551Z" fill="#9B51FF"/>
<path opacity="0.11" d="M75.2979 190.573C75.8368 190.223 75.9901 189.503 75.6404 188.964C75.2907 188.425 74.5703 188.271 74.0314 188.621C73.4925 188.971 73.3391 189.691 73.6889 190.23C74.0386 190.769 74.759 190.922 75.2979 190.573Z" fill="#9B51FF"/>
<path opacity="0.11" d="M256.388 59.1718C256.927 58.8221 257.08 58.1017 256.73 57.5628C256.381 57.0239 255.66 56.8705 255.121 57.2203C254.582 57.57 254.429 58.2904 254.779 58.8293C255.128 59.3682 255.849 59.5216 256.388 59.1718Z" fill="#9B51FF"/>
<path opacity="0.3" d="M135.8 99.9724C136.879 99.2723 137.186 97.8304 136.486 96.7517C135.786 95.6729 134.344 95.3659 133.265 96.066C132.186 96.766 131.88 98.208 132.58 99.2867C133.28 100.365 134.722 100.672 135.8 99.9724Z" fill="#9B51FF"/>
<path opacity="0.11" d="M174.395 33.3068C175.473 32.6068 175.78 31.1648 175.08 30.0861C174.38 29.0073 172.938 28.7004 171.859 29.4004C170.781 30.1004 170.474 31.5424 171.174 32.6212C171.874 33.6999 173.316 34.0068 174.395 33.3068Z" fill="#9B51FF"/>
<path d="M151.739 -0.545381C152.547 -1.07027 152.778 -2.15145 152.253 -2.96026C151.728 -3.76907 150.647 -3.99922 149.838 -3.47433C149.029 -2.94944 148.799 -1.86826 149.324 -1.05945C149.849 -0.250642 150.93 -0.0204948 151.739 -0.545381Z" fill="#9B51FF"/>
<path d="M150.903 145.67C151.711 145.146 151.942 144.064 151.417 143.256C150.892 142.447 149.811 142.217 149.002 142.741C148.193 143.266 147.963 144.348 148.488 145.156C149.013 145.965 150.094 146.195 150.903 145.67Z" fill="#9B51FF"/>
<path d="M117.555 49.3892C118.364 48.8643 118.594 47.7831 118.069 46.9743C117.544 46.1655 116.463 45.9354 115.654 46.4602C114.846 46.9851 114.615 48.0663 115.14 48.8751C115.665 49.684 116.746 49.9141 117.555 49.3892Z" fill="#9B51FF"/>
<path d="M267.819 114.191C268.628 113.667 268.858 112.585 268.333 111.777C267.809 110.968 266.727 110.738 265.919 111.262C265.11 111.787 264.88 112.869 265.405 113.677C265.929 114.486 267.011 114.716 267.819 114.191Z" fill="#9B51FF"/>
<path opacity="0.11" d="M560.105 5.91521C561.184 5.21516 561.491 3.77319 560.791 2.69447C560.091 1.61575 558.649 1.30879 557.57 2.00883C556.492 2.70888 556.185 4.15082 556.885 5.22954C557.585 6.30826 559.027 6.61525 560.105 5.91521Z" fill="#9B51FF"/>
<path d="M326.1 160.549C326.639 160.199 326.792 159.479 326.443 158.94C326.093 158.401 325.373 158.248 324.834 158.597C324.295 158.947 324.141 159.667 324.491 160.206C324.841 160.745 325.561 160.899 326.1 160.549Z" fill="#9B51FF"/>
<path opacity="0.11" d="M277.256 117.333C277.795 116.984 277.949 116.263 277.599 115.724C277.249 115.186 276.529 115.032 275.99 115.382C275.451 115.732 275.298 116.452 275.647 116.991C275.997 117.53 276.717 117.683 277.256 117.333Z" fill="#9B51FF"/>
<path opacity="0.11" d="M249.855 167.028C250.394 166.679 250.547 165.958 250.197 165.419C249.848 164.88 249.127 164.727 248.588 165.077C248.049 165.426 247.896 166.147 248.246 166.686C248.596 167.225 249.316 167.378 249.855 167.028Z" fill="#9B51FF"/>
<path opacity="0.11" d="M320.079 204.696C320.618 204.347 320.771 203.626 320.421 203.087C320.071 202.548 319.351 202.395 318.812 202.745C318.273 203.094 318.12 203.815 318.47 204.354C318.819 204.893 319.54 205.046 320.079 204.696Z" fill="#9B51FF"/>
<path opacity="0.11" d="M527.067 14.8661C527.606 14.5164 527.759 13.796 527.409 13.2571C527.06 12.7182 526.339 12.5649 525.801 12.9146C525.262 13.2643 525.108 13.9847 525.458 14.5236C525.808 15.0625 526.528 15.2158 527.067 14.8661Z" fill="#9B51FF"/>
<path opacity="0.3" d="M355.175 106.998C355.714 106.649 355.867 105.928 355.518 105.39C355.168 104.851 354.448 104.697 353.909 105.047C353.37 105.397 353.216 106.117 353.566 106.656C353.916 107.195 354.636 107.348 355.175 106.998Z" fill="#9B51FF"/>
<path d="M537.394 41.4682C537.933 41.1185 538.086 40.3981 537.736 39.8592C537.386 39.3203 536.666 39.1669 536.127 39.5166C535.588 39.8664 535.435 40.5868 535.785 41.1257C536.134 41.6646 536.855 41.8179 537.394 41.4682Z" fill="#9B51FF"/>
<path opacity="0.3" d="M469.059 85.8149C469.597 85.4651 469.751 84.7448 469.401 84.2059C469.051 83.667 468.331 83.5136 467.792 83.8634C467.253 84.2131 467.1 84.9335 467.45 85.4724C467.799 86.0113 468.52 86.1646 469.059 85.8149Z" fill="#9B51FF"/>
<path opacity="0.11" d="M349.741 77.2333C350.28 76.8836 350.433 76.1632 350.084 75.6243C349.734 75.0854 349.013 74.9321 348.475 75.2818C347.936 75.6315 347.782 76.3519 348.132 76.8908C348.482 77.4297 349.202 77.583 349.741 77.2333Z" fill="#9B51FF"/>
<path opacity="0.3" d="M566.037 49.2446C566.576 48.8949 566.729 48.1744 566.379 47.6355C566.029 47.0966 565.309 46.9433 564.77 47.2931C564.231 47.6428 564.078 48.3631 564.428 48.902C564.777 49.4409 565.498 49.5943 566.037 49.2446Z" fill="#9B51FF"/>
<path opacity="0.3" d="M454.242 135.663C454.781 135.313 454.934 134.592 454.584 134.054C454.235 133.515 453.514 133.361 452.975 133.711C452.436 134.061 452.283 134.781 452.633 135.32C452.982 135.859 453.703 136.012 454.242 135.663Z" fill="#9B51FF"/>
<path opacity="0.3" d="M383.491 88.6313C384.029 88.2816 384.183 87.5612 383.833 87.0223C383.483 86.4834 382.763 86.33 382.224 86.6797C381.685 87.0295 381.532 87.7499 381.882 88.2888C382.231 88.8277 382.952 88.981 383.491 88.6313Z" fill="#9B51FF"/>
<path d="M455.922 169.257C456.731 168.732 456.961 167.651 456.436 166.842C455.911 166.033 454.83 165.803 454.021 166.328C453.213 166.853 452.982 167.934 453.507 168.743C454.032 169.552 455.113 169.782 455.922 169.257Z" fill="#9B51FF"/>
<path d="M311.525 231.06C312.334 230.535 312.564 229.454 312.039 228.645C311.514 227.836 310.433 227.606 309.624 228.131C308.815 228.656 308.585 229.737 309.11 230.546C309.635 231.355 310.716 231.585 311.525 231.06Z" fill="#9B51FF"/>
<path d="M269.586 202.782C270.395 202.257 270.625 201.176 270.1 200.367C269.575 199.559 268.494 199.328 267.685 199.853C266.876 200.378 266.646 201.459 267.171 202.268C267.696 203.077 268.777 203.307 269.586 202.782Z" fill="#9B51FF"/>
<path opacity="0.3" d="M411.45 150.949C412.529 150.249 412.836 148.807 412.136 147.728C411.436 146.649 409.994 146.342 408.915 147.042C407.836 147.743 407.529 149.185 408.229 150.263C408.93 151.342 410.372 151.649 411.45 150.949Z" fill="#9B51FF"/>
<path opacity="0.3" d="M297.521 148.577C298.6 147.877 298.906 146.435 298.206 145.356C297.506 144.277 296.064 143.97 294.986 144.67C293.907 145.37 293.6 146.812 294.3 147.891C295 148.97 296.442 149.277 297.521 148.577Z" fill="#9B51FF"/>
<path opacity="0.3" d="M415.584 24.7912C416.663 24.0911 416.969 22.6492 416.269 21.5704C415.569 20.4917 414.127 20.1847 413.049 20.8848C411.97 21.5848 411.663 23.0268 412.363 24.1055C413.063 25.1843 414.505 25.4912 415.584 24.7912Z" fill="#9B51FF"/>
<path opacity="0.11" d="M376.555 22.3722C377.634 21.6722 377.941 20.2302 377.241 19.1515C376.541 18.0728 375.099 17.7658 374.02 18.4658C372.941 19.1659 372.634 20.6079 373.334 21.6866C374.034 22.7653 375.476 23.0723 376.555 22.3722Z" fill="#9B51FF"/>
<path opacity="0.3" d="M409.298 89.9151C410.377 89.2151 410.684 87.7732 409.984 86.6944C409.283 85.6157 407.842 85.3088 406.763 86.0088C405.684 86.7088 405.377 88.1508 406.077 89.2295C406.777 90.3083 408.219 90.6152 409.298 89.9151Z" fill="#9B51FF"/>
<path d="M469.669 49.3457C470.478 48.8208 470.708 47.7397 470.183 46.9309C469.658 46.122 468.577 45.8919 467.768 46.4168C466.959 46.9416 466.729 48.0229 467.254 48.8317C467.779 49.6405 468.86 49.8706 469.669 49.3457Z" fill="#9B51FF"/>
</g>
</g>
</g>
<defs>
<radialGradient id="paint0_radial_3_4407" cx="0" cy="0" r="1" gradientUnits="userSpaceOnUse" gradientTransform="translate(300 268.294) rotate(39.9732) scale(1127.43 1110.12)">
<stop/>
<stop offset="1" stop-opacity="0"/>
</radialGradient>
<clipPath id="clip0_3_4407">
<rect width="1728" height="1448.59" fill="white" transform="translate(-564 -456)"/>
</clipPath>
</defs>
</svg>
