<svg width="16" height="15" viewBox="0 0 16 15" fill="none" xmlns="http://www.w3.org/2000/svg">
<mask id="mask0_3_4646" style="mask-type:alpha" maskUnits="userSpaceOnUse" x="0" y="0" width="16" height="15">
<path d="M7.85808 14.6712C5.93696 14.6691 4.09512 13.9051 2.73668 12.5466C1.37824 11.1882 0.614153 9.34634 0.612061 7.42522C0.612061 3.42937 3.86355 0.179199 7.85808 0.179199C11.8526 0.179199 15.1041 3.42937 15.1041 7.42522C15.1041 11.4211 11.8526 14.6712 7.85808 14.6712Z" fill="white"/>
</mask>
<g mask="url(#mask0_3_4646)">
<path fill-rule="evenodd" clip-rule="evenodd" d="M5.75308 5.25098C5.64062 5.25098 5.52926 5.27313 5.42537 5.31616C5.32147 5.3592 5.22707 5.42228 5.14755 5.5018C5.06803 5.58131 5.00495 5.67572 4.96191 5.77961C4.91888 5.88351 4.89673 5.99487 4.89673 6.10732C4.89673 6.21978 4.91888 6.33114 4.96191 6.43503C5.00495 6.53893 5.06803 6.63334 5.14755 6.71285C5.22707 6.79237 5.32147 6.85545 5.42537 6.89849C5.52926 6.94152 5.64062 6.96367 5.75308 6.96367C5.98019 6.96367 6.19801 6.87345 6.35861 6.71285C6.5192 6.55226 6.60942 6.33444 6.60942 6.10732C6.60942 5.88021 6.5192 5.66239 6.35861 5.5018C6.19801 5.3412 5.98019 5.25098 5.75308 5.25098ZM10.0111 6.06253C9.89864 6.06253 9.78729 6.08468 9.68339 6.12772C9.57949 6.17075 9.48509 6.23383 9.40557 6.31335C9.32605 6.39287 9.26297 6.48727 9.21994 6.59117C9.1769 6.69507 9.15475 6.80642 9.15475 6.91888C9.15475 7.03134 9.1769 7.14269 9.21994 7.24659C9.26297 7.35049 9.32605 7.44489 9.40557 7.52441C9.48509 7.60393 9.57949 7.66701 9.68339 7.71004C9.78729 7.75308 9.89864 7.77523 10.0111 7.77523C10.2382 7.77523 10.456 7.68501 10.6166 7.52441C10.7772 7.36381 10.8675 7.146 10.8675 6.91888C10.8675 6.69176 10.7772 6.47395 10.6166 6.31335C10.456 6.15275 10.2382 6.06253 10.0111 6.06253Z" fill="#523951" stroke="#523951" stroke-width="0.0843173"/>
<path d="M9.49202 4.54518C9.79504 4.43715 10.131 4.43715 10.434 4.54518C10.7476 4.61764 11.0203 4.7955 11.2021 5.04581M4.89673 3.48199C5.12597 3.26593 5.43425 3.13813 5.75835 3.12101C6.08244 3.07621 6.41049 3.14736 6.68057 3.31862L4.89673 3.48199Z" stroke="#523951" stroke-width="0.758856" stroke-linecap="round" stroke-linejoin="round"/>
<path fill-rule="evenodd" clip-rule="evenodd" d="M8.00362 10.0206C8.09902 10.0032 8.19701 10.0058 8.29136 10.0282C8.38571 10.0507 8.47436 10.0925 8.55168 10.1511C8.70978 10.2696 8.81517 10.4488 8.84416 10.6491C8.86821 10.8417 8.82074 11.0365 8.71074 11.1966C8.60074 11.3566 8.43586 11.4707 8.24735 11.5173L6.4095 11.84C6.56759 11.8137 6.72964 11.8545 6.85743 11.9547C6.98798 12.0558 7.07322 12.2045 7.09457 12.3683C7.12118 12.5267 7.08808 12.6893 7.00167 12.8246C6.91527 12.9599 6.78171 13.0584 6.62688 13.1008C6.79815 13.1931 6.91672 13.3643 6.94834 13.562C6.97198 13.7103 6.94524 13.8622 6.87241 13.9936C6.79957 14.1249 6.68484 14.2281 6.54651 14.2866C6.64282 14.4145 6.68792 14.5737 6.67299 14.7332C6.65975 14.8847 6.5961 15.0274 6.4922 15.1384C6.38831 15.2495 6.25018 15.3225 6.09989 15.3458L5.88646 15.3932C5.33313 15.5184 4.77453 15.6146 4.21198 15.6804C3.5717 15.6896 2.93202 15.6376 2.30166 15.525C2.0858 15.4752 1.88663 15.37 1.72377 15.2199C1.5609 15.0697 1.43996 14.8797 1.37285 14.6686C0.955218 13.7662 0.727298 12.0587 1.23847 11.5647C1.75096 11.072 1.66269 11.1958 1.90774 10.6095C2.15147 10.0246 2.40837 9.35267 2.60336 8.77826C2.79834 8.20648 2.87476 7.94826 3.23706 7.80861C3.41452 7.75553 3.60549 7.77152 3.77165 7.85338C3.93781 7.93524 4.06687 8.07691 4.13293 8.24996C4.18563 8.64783 4.1685 9.05361 4.07759 9.44358C3.98537 10.2393 3.98274 10.4224 4.07759 10.6938L8.00362 10.0219V10.0206Z" stroke="#523951" stroke-width="0.971336" stroke-linecap="round" stroke-linejoin="round"/>
<path d="M3.61648 10.7848L8.00362 10.0206C8.09902 10.0032 8.19701 10.0058 8.29136 10.0282C8.38571 10.0507 8.47436 10.0925 8.55168 10.1511C8.70978 10.2696 8.81517 10.4488 8.84416 10.6491C8.86821 10.8417 8.82074 11.0365 8.71074 11.1966C8.60074 11.3566 8.43586 11.4707 8.24735 11.5173L6.4095 11.84C6.56759 11.8137 6.72964 11.8545 6.85743 11.9547C6.98798 12.0558 7.07322 12.2045 7.09457 12.3683C7.12118 12.5267 7.08808 12.6893 7.00167 12.8246C6.91527 12.9599 6.78171 13.0584 6.62688 13.1008C6.79815 13.1931 6.91672 13.3643 6.94834 13.562C6.97198 13.7103 6.94524 13.8622 6.87241 13.9936C6.79957 14.1249 6.68484 14.2281 6.54651 14.2866C6.64282 14.4145 6.68792 14.5737 6.67299 14.7332C6.65975 14.8847 6.5961 15.0274 6.4922 15.1384C6.38831 15.2495 6.25018 15.3225 6.09989 15.3458L5.88646 15.3932C5.33313 15.5184 4.77453 15.6146 4.21198 15.6804C3.5717 15.6896 2.93202 15.6376 2.30166 15.525C2.0858 15.4752 1.88663 15.37 1.72377 15.2199C1.5609 15.0697 1.43996 14.8797 1.37285 14.6686C0.955218 13.7662 0.727298 12.0587 1.23847 11.5647C1.75096 11.072 1.66269 11.1958 1.90774 10.6095C2.15147 10.0246 2.40837 9.35267 2.60336 8.77826C2.79834 8.20648 2.87476 7.94826 3.23706 7.80861C3.41452 7.75553 3.60549 7.77152 3.77165 7.85338C3.93781 7.93524 4.06687 8.07691 4.13293 8.24996C4.18563 8.64783 4.1685 9.05361 4.07759 9.44358C3.98537 10.2393 3.98274 10.4224 4.07759 10.6938" fill="#F9F0F8"/>
<path fill-rule="evenodd" clip-rule="evenodd" d="M8.00362 10.0206C8.09902 10.0032 8.19701 10.0058 8.29136 10.0282C8.38571 10.0507 8.47436 10.0925 8.55168 10.1511C8.70978 10.2696 8.81517 10.4488 8.84416 10.6491C8.86821 10.8417 8.82074 11.0365 8.71074 11.1966C8.60074 11.3566 8.43586 11.4707 8.24735 11.5173L6.4095 11.84C6.56759 11.8137 6.72964 11.8545 6.85743 11.9547C6.98798 12.0558 7.07322 12.2045 7.09457 12.3683C7.12118 12.5267 7.08808 12.6893 7.00167 12.8246C6.91527 12.9599 6.78171 13.0584 6.62688 13.1008C6.79815 13.1931 6.91672 13.3643 6.94834 13.562C6.97198 13.7103 6.94524 13.8622 6.87241 13.9936C6.79957 14.1249 6.68484 14.2281 6.54651 14.2866C6.64282 14.4145 6.68792 14.5737 6.67299 14.7332C6.65975 14.8847 6.5961 15.0274 6.4922 15.1384C6.38831 15.2495 6.25018 15.3225 6.09989 15.3458L5.88646 15.3932C5.33313 15.5184 4.77453 15.6146 4.21198 15.6804C3.5717 15.6896 2.93202 15.6376 2.30166 15.525C2.0858 15.4752 1.88663 15.37 1.72377 15.2199C1.5609 15.0697 1.43996 14.8797 1.37285 14.6686C0.955218 13.7662 0.727298 12.0587 1.23847 11.5647C1.75096 11.072 1.66269 11.1958 1.90774 10.6095C2.15147 10.0246 2.40837 9.35267 2.60336 8.77826C2.79834 8.20648 2.87476 7.94826 3.23706 7.80861C3.41452 7.75553 3.60549 7.77152 3.77165 7.85338C3.93781 7.93524 4.06687 8.07691 4.13293 8.24996C4.18563 8.64783 4.1685 9.05361 4.07759 9.44358C3.98537 10.2393 3.98274 10.4224 4.07759 10.6938L8.00362 10.0219V10.0206Z" stroke="#523951" stroke-width="0.421587" stroke-linecap="round" stroke-linejoin="round"/>
</g>
</svg>
